0, 0, Header, 0, 1, 120
1, 0, Start_track
1, 0, Title_t, "untitled"
1, 0, Copyright_t, "Copyright © 2000 by Octavio Alberto Agustín Aquino"
1, 0, Text_t, "Octavio Alberto Agustín Aquino"
1, 0, Time_signature, 3, 2, 24, 8
1, 0, Key_signature, 0, "major"
1, 0, Tempo, 365854
1, 0, Program_c, 0, 24
1, 180, Note_on_c, 0, 55, 100
1, 240, Note_on_c, 0, 55, 0
1, 240, Note_on_c, 0, 55, 100
1, 300, Note_on_c, 0, 55, 0
1, 300, Note_on_c, 0, 55, 100
1, 360, Note_on_c, 0, 55, 0
1, 360, Note_on_c, 0, 48, 100
1, 360, Note_on_c, 0, 60, 100
1, 480, Note_on_c, 0, 60, 0
1, 480, Note_on_c, 0, 48, 0
1, 480, Note_on_c, 0, 52, 100
1, 480, Note_on_c, 0, 64, 100
1, 540, Note_on_c, 0, 64, 0
1, 540, Note_on_c, 0, 55, 100
1, 600, Note_on_c, 0, 55, 0
1, 600, Note_on_c, 0, 55, 100
1, 660, Note_on_c, 0, 55, 0
1, 660, Note_on_c, 0, 55, 100
1, 720, Note_on_c, 0, 55, 0
1, 720, Note_on_c, 0, 52, 0
1, 720, Note_on_c, 0, 48, 100
1, 720, Note_on_c, 0, 60, 100
1, 840, Note_on_c, 0, 60, 0
1, 840, Note_on_c, 0, 48, 0
1, 840, Note_on_c, 0, 52, 100
1, 840, Note_on_c, 0, 64, 100
1, 960, Note_on_c, 0, 64, 0
1, 960, Note_on_c, 0, 43, 100
1, 1080, Note_on_c, 0, 43, 0
1, 1080, Note_on_c, 0, 52, 0
1, 1080, Note_on_c, 0, 60, 100
1, 1080, Note_on_c, 0, 48, 100
1, 1140, Note_on_c, 0, 60, 0
1, 1140, Note_on_c, 0, 60, 100
1, 1200, Note_on_c, 0, 60, 0
1, 1200, Note_on_c, 0, 59, 100
1, 1260, Note_on_c, 0, 59, 0
1, 1260, Note_on_c, 0, 59, 100
1, 1320, Note_on_c, 0, 59, 0
1, 1320, Note_on_c, 0, 57, 100
1, 1380, Note_on_c, 0, 57, 0
1, 1380, Note_on_c, 0, 57, 100
1, 1440, Note_on_c, 0, 57, 0
1, 1440, Note_on_c, 0, 48, 0
1, 1440, Note_on_c, 0, 55, 100
1, 1440, Note_on_c, 0, 43, 100
1, 1560, Note_on_c, 0, 43, 0
1, 1560, Note_on_c, 0, 50, 100
1, 1620, Note_on_c, 0, 55, 0
1, 1620, Note_on_c, 0, 55, 100
1, 1680, Note_on_c, 0, 55, 0
1, 1680, Note_on_c, 0, 55, 100
1, 1740, Note_on_c, 0, 55, 0
1, 1740, Note_on_c, 0, 55, 100
1, 1800, Note_on_c, 0, 55, 0
1, 1800, Note_on_c, 0, 50, 0
1, 1800, Note_on_c, 0, 43, 100
1, 1800, Note_on_c, 0, 59, 100
1, 1920, Note_on_c, 0, 59, 0
1, 1920, Note_on_c, 0, 43, 0
1, 1920, Note_on_c, 0, 50, 100
1, 1920, Note_on_c, 0, 62, 100
1, 1980, Note_on_c, 0, 62, 0
1, 1980, Note_on_c, 0, 55, 100
1, 2040, Note_on_c, 0, 55, 0
1, 2040, Note_on_c, 0, 55, 100
1, 2100, Note_on_c, 0, 55, 0
1, 2100, Note_on_c, 0, 55, 100
1, 2160, Note_on_c, 0, 55, 0
1, 2160, Note_on_c, 0, 50, 0
1, 2160, Note_on_c, 0, 43, 100
1, 2160, Note_on_c, 0, 59, 100
1, 2280, Note_on_c, 0, 59, 0
1, 2280, Note_on_c, 0, 43, 0
1, 2280, Note_on_c, 0, 50, 100
1, 2280, Note_on_c, 0, 62, 100
1, 2400, Note_on_c, 0, 62, 0
1, 2400, Note_on_c, 0, 47, 100
1, 2520, Note_on_c, 0, 47, 0
1, 2520, Note_on_c, 0, 50, 0
1, 2520, Note_on_c, 0, 67, 100
1, 2520, Note_on_c, 0, 55, 100
1, 2580, Note_on_c, 0, 67, 0
1, 2580, Note_on_c, 0, 69, 100
1, 2640, Note_on_c, 0, 69, 0
1, 2640, Note_on_c, 0, 67, 100
1, 2700, Note_on_c, 0, 67, 0
1, 2700, Note_on_c, 0, 65, 100
1, 2760, Note_on_c, 0, 65, 0
1, 2760, Note_on_c, 0, 50, 100
1, 2760, Note_on_c, 0, 64, 100
1, 2820, Note_on_c, 0, 64, 0
1, 2820, Note_on_c, 0, 62, 100
1, 2880, Note_on_c, 0, 62, 0
1, 2880, Note_on_c, 0, 50, 0
1, 2880, Note_on_c, 0, 55, 0
1, 2880, Note_on_c, 0, 48, 100
1, 2880, Note_on_c, 0, 52, 100
1, 2880, Note_on_c, 0, 55, 100
1, 2880, Note_on_c, 0, 60, 100
1, 3060, Note_on_c, 0, 55, 100
1, 3120, Note_on_c, 0, 55, 0
1, 3120, Note_on_c, 0, 55, 0
1, 3120, Note_on_c, 0, 48, 0
1, 3120, Note_on_c, 0, 52, 0
1, 3120, Note_on_c, 0, 60, 0
1, 3120, Note_on_c, 0, 55, 100
1, 3180, Note_on_c, 0, 55, 0
1, 3180, Note_on_c, 0, 55, 100
1, 3240, Note_on_c, 0, 55, 0
1, 3240, Note_on_c, 0, 48, 100
1, 3240, Note_on_c, 0, 60, 100
1, 3360, Note_on_c, 0, 60, 0
1, 3360, Note_on_c, 0, 48, 0
1, 3360, Note_on_c, 0, 52, 100
1, 3360, Note_on_c, 0, 64, 100
1, 3420, Note_on_c, 0, 64, 0
1, 3420, Note_on_c, 0, 55, 100
1, 3480, Note_on_c, 0, 55, 0
1, 3480, Note_on_c, 0, 55, 100
1, 3540, Note_on_c, 0, 55, 0
1, 3540, Note_on_c, 0, 55, 100
1, 3600, Note_on_c, 0, 55, 0
1, 3600, Note_on_c, 0, 52, 0
1, 3600, Note_on_c, 0, 48, 100
1, 3600, Note_on_c, 0, 60, 100
1, 3720, Note_on_c, 0, 60, 0
1, 3720, Note_on_c, 0, 48, 0
1, 3720, Note_on_c, 0, 52, 100
1, 3720, Note_on_c, 0, 64, 100
1, 3840, Note_on_c, 0, 64, 0
1, 3840, Note_on_c, 0, 43, 100
1, 3960, Note_on_c, 0, 43, 0
1, 3960, Note_on_c, 0, 52, 0
1, 3960, Note_on_c, 0, 60, 100
1, 3960, Note_on_c, 0, 48, 100
1, 4020, Note_on_c, 0, 60, 0
1, 4020, Note_on_c, 0, 60, 100
1, 4080, Note_on_c, 0, 60, 0
1, 4080, Note_on_c, 0, 59, 100
1, 4140, Note_on_c, 0, 59, 0
1, 4140, Note_on_c, 0, 59, 100
1, 4200, Note_on_c, 0, 59, 0
1, 4200, Note_on_c, 0, 57, 100
1, 4260, Note_on_c, 0, 57, 0
1, 4260, Note_on_c, 0, 57, 100
1, 4320, Note_on_c, 0, 57, 0
1, 4320, Note_on_c, 0, 48, 0
1, 4320, Note_on_c, 0, 55, 100
1, 4320, Note_on_c, 0, 43, 100
1, 4440, Note_on_c, 0, 43, 0
1, 4440, Note_on_c, 0, 50, 100
1, 4500, Note_on_c, 0, 55, 0
1, 4500, Note_on_c, 0, 55, 100
1, 4560, Note_on_c, 0, 55, 0
1, 4560, Note_on_c, 0, 55, 100
1, 4620, Note_on_c, 0, 55, 0
1, 4620, Note_on_c, 0, 55, 100
1, 4680, Note_on_c, 0, 55, 0
1, 4680, Note_on_c, 0, 50, 0
1, 4680, Note_on_c, 0, 43, 100
1, 4680, Note_on_c, 0, 59, 100
1, 4800, Note_on_c, 0, 59, 0
1, 4800, Note_on_c, 0, 43, 0
1, 4800, Note_on_c, 0, 50, 100
1, 4800, Note_on_c, 0, 62, 100
1, 4860, Note_on_c, 0, 62, 0
1, 4860, Note_on_c, 0, 55, 100
1, 4920, Note_on_c, 0, 55, 0
1, 4920, Note_on_c, 0, 55, 100
1, 4980, Note_on_c, 0, 55, 0
1, 4980, Note_on_c, 0, 55, 100
1, 5040, Note_on_c, 0, 55, 0
1, 5040, Note_on_c, 0, 50, 0
1, 5040, Note_on_c, 0, 43, 100
1, 5040, Note_on_c, 0, 59, 100
1, 5160, Note_on_c, 0, 59, 0
1, 5160, Note_on_c, 0, 43, 0
1, 5160, Note_on_c, 0, 50, 100
1, 5160, Note_on_c, 0, 62, 100
1, 5280, Note_on_c, 0, 62, 0
1, 5280, Note_on_c, 0, 47, 100
1, 5400, Note_on_c, 0, 47, 0
1, 5400, Note_on_c, 0, 50, 0
1, 5400, Note_on_c, 0, 67, 100
1, 5400, Note_on_c, 0, 55, 100
1, 5460, Note_on_c, 0, 67, 0
1, 5460, Note_on_c, 0, 69, 100
1, 5520, Note_on_c, 0, 69, 0
1, 5520, Note_on_c, 0, 67, 100
1, 5580, Note_on_c, 0, 67, 0
1, 5580, Note_on_c, 0, 65, 100
1, 5640, Note_on_c, 0, 65, 0
1, 5640, Note_on_c, 0, 50, 100
1, 5640, Note_on_c, 0, 64, 100
1, 5700, Note_on_c, 0, 64, 0
1, 5700, Note_on_c, 0, 62, 100
1, 5760, Note_on_c, 0, 62, 0
1, 5760, Note_on_c, 0, 50, 0
1, 5760, Note_on_c, 0, 55, 0
1, 5760, Note_on_c, 0, 48, 100
1, 5760, Note_on_c, 0, 52, 100
1, 5760, Note_on_c, 0, 55, 100
1, 5760, Note_on_c, 0, 60, 100
1, 6000, Note_on_c, 0, 60, 0
1, 6000, Note_on_c, 0, 48, 0
1, 6000, Note_on_c, 0, 52, 0
1, 6000, Note_on_c, 0, 55, 0
1, 6000, Note_on_c, 0, 43, 100
1, 6120, Note_on_c, 0, 43, 0
1, 6120, Note_on_c, 0, 48, 100
1, 6120, Note_on_c, 0, 55, 100
1, 6180, Note_on_c, 0, 55, 0
1, 6180, Note_on_c, 0, 55, 100
1, 6240, Note_on_c, 0, 55, 0
1, 6240, Note_on_c, 0, 48, 0
1, 6240, Note_on_c, 0, 52, 100
1, 6240, Note_on_c, 0, 60, 100
1, 6300, Note_on_c, 0, 60, 0
1, 6300, Note_on_c, 0, 60, 100
1, 6360, Note_on_c, 0, 60, 0
1, 6360, Note_on_c, 0, 52, 0
1, 6360, Note_on_c, 0, 55, 100
1, 6360, Note_on_c, 0, 64, 100
1, 6420, Note_on_c, 0, 64, 0
1, 6420, Note_on_c, 0, 64, 100
1, 6480, Note_on_c, 0, 64, 0
1, 6480, Note_on_c, 0, 55, 0
1, 6480, Note_on_c, 0, 48, 100
1, 6480, Note_on_c, 0, 67, 100
1, 6600, Note_on_c, 0, 67, 0
1, 6600, Note_on_c, 0, 48, 0
1, 6600, Note_on_c, 0, 52, 100
1, 6600, Note_on_c, 0, 55, 100
1, 6600, Note_on_c, 0, 64, 100
1, 6720, Note_on_c, 0, 64, 0
1, 6720, Note_on_c, 0, 43, 100
1, 6840, Note_on_c, 0, 43, 0
1, 6840, Note_on_c, 0, 55, 0
1, 6840, Note_on_c, 0, 52, 0
1, 6840, Note_on_c, 0, 67, 100
1, 6840, Note_on_c, 0, 55, 100
1, 6900, Note_on_c, 0, 67, 0
1, 6900, Note_on_c, 0, 69, 100
1, 6960, Note_on_c, 0, 69, 0
1, 6960, Note_on_c, 0, 67, 100
1, 7020, Note_on_c, 0, 67, 0
1, 7020, Note_on_c, 0, 65, 100
1, 7080, Note_on_c, 0, 65, 0
1, 7080, Note_on_c, 0, 47, 100
1, 7080, Note_on_c, 0, 64, 100
1, 7140, Note_on_c, 0, 64, 0
1, 7140, Note_on_c, 0, 67, 100
1, 7200, Note_on_c, 0, 67, 0
1, 7200, Note_on_c, 0, 47, 0
1, 7200, Note_on_c, 0, 55, 0
1, 7200, Note_on_c, 0, 43, 100
1, 7200, Note_on_c, 0, 65, 100
1, 7320, Note_on_c, 0, 65, 0
1, 7320, Note_on_c, 0, 43, 0
1, 7320, Note_on_c, 0, 55, 100
1, 7320, Note_on_c, 0, 50, 100
1, 7320, Note_on_c, 0, 62, 100
1, 7440, Note_on_c, 0, 62, 0
1, 7440, Note_on_c, 0, 43, 100
1, 7560, Note_on_c, 0, 43, 0
1, 7560, Note_on_c, 0, 50, 0
1, 7560, Note_on_c, 0, 55, 0
1, 7560, Note_on_c, 0, 55, 100
1, 7560, Note_on_c, 0, 47, 100
1, 7620, Note_on_c, 0, 55, 0
1, 7620, Note_on_c, 0, 55, 100
1, 7680, Note_on_c, 0, 55, 0
1, 7680, Note_on_c, 0, 47, 0
1, 7680, Note_on_c, 0, 59, 100
1, 7680, Note_on_c, 0, 50, 100
1, 7740, Note_on_c, 0, 59, 0
1, 7740, Note_on_c, 0, 59, 100
1, 7800, Note_on_c, 0, 59, 0
1, 7800, Note_on_c, 0, 50, 0
1, 7800, Note_on_c, 0, 62, 100
1, 7800, Note_on_c, 0, 55, 100
1, 7860, Note_on_c, 0, 62, 0
1, 7860, Note_on_c, 0, 62, 100
1, 7920, Note_on_c, 0, 62, 0
1, 7920, Note_on_c, 0, 55, 0
1, 7920, Note_on_c, 0, 43, 100
1, 7920, Note_on_c, 0, 65, 100
1, 8040, Note_on_c, 0, 65, 0
1, 8040, Note_on_c, 0, 43, 0
1, 8040, Note_on_c, 0, 50, 100
1, 8040, Note_on_c, 0, 55, 100
1, 8040, Note_on_c, 0, 62, 100
1, 8160, Note_on_c, 0, 62, 0
1, 8160, Note_on_c, 0, 47, 100
1, 8280, Note_on_c, 0, 47, 0
1, 8280, Note_on_c, 0, 55, 0
1, 8280, Note_on_c, 0, 50, 0
1, 8280, Note_on_c, 0, 55, 100
1, 8280, Note_on_c, 0, 67, 100
1, 8340, Note_on_c, 0, 67, 0
1, 8340, Note_on_c, 0, 69, 100
1, 8400, Note_on_c, 0, 69, 0
1, 8400, Note_on_c, 0, 67, 100
1, 8460, Note_on_c, 0, 67, 0
1, 8460, Note_on_c, 0, 65, 100
1, 8520, Note_on_c, 0, 65, 0
1, 8520, Note_on_c, 0, 55, 0
1, 8520, Note_on_c, 0, 50, 100
1, 8520, Note_on_c, 0, 64, 100
1, 8580, Note_on_c, 0, 64, 0
1, 8580, Note_on_c, 0, 62, 100
1, 8640, Note_on_c, 0, 62, 0
1, 8640, Note_on_c, 0, 50, 0
1, 8640, Note_on_c, 0, 48, 100
1, 8640, Note_on_c, 0, 52, 100
1, 8640, Note_on_c, 0, 55, 100
1, 8640, Note_on_c, 0, 60, 100
1, 8880, Note_on_c, 0, 60, 0
1, 8880, Note_on_c, 0, 48, 0
1, 8880, Note_on_c, 0, 52, 0
1, 8880, Note_on_c, 0, 55, 0
1, 8880, Note_on_c, 0, 43, 100
1, 9000, Note_on_c, 0, 43, 0
1, 9000, Note_on_c, 0, 48, 100
1, 9000, Note_on_c, 0, 55, 100
1, 9060, Note_on_c, 0, 55, 0
1, 9060, Note_on_c, 0, 55, 100
1, 9120, Note_on_c, 0, 55, 0
1, 9120, Note_on_c, 0, 48, 0
1, 9120, Note_on_c, 0, 52, 100
1, 9120, Note_on_c, 0, 60, 100
1, 9180, Note_on_c, 0, 60, 0
1, 9180, Note_on_c, 0, 60, 100
1, 9240, Note_on_c, 0, 60, 0
1, 9240, Note_on_c, 0, 52, 0
1, 9240, Note_on_c, 0, 55, 100
1, 9240, Note_on_c, 0, 64, 100
1, 9300, Note_on_c, 0, 64, 0
1, 9300, Note_on_c, 0, 64, 100
1, 9360, Note_on_c, 0, 64, 0
1, 9360, Note_on_c, 0, 55, 0
1, 9360, Note_on_c, 0, 48, 100
1, 9360, Note_on_c, 0, 67, 100
1, 9480, Note_on_c, 0, 67, 0
1, 9480, Note_on_c, 0, 48, 0
1, 9480, Note_on_c, 0, 52, 100
1, 9480, Note_on_c, 0, 55, 100
1, 9480, Note_on_c, 0, 64, 100
1, 9600, Note_on_c, 0, 64, 0
1, 9600, Note_on_c, 0, 43, 100
1, 9720, Note_on_c, 0, 43, 0
1, 9720, Note_on_c, 0, 55, 0
1, 9720, Note_on_c, 0, 52, 0
1, 9720, Note_on_c, 0, 67, 100
1, 9720, Note_on_c, 0, 55, 100
1, 9780, Note_on_c, 0, 67, 0
1, 9780, Note_on_c, 0, 69, 100
1, 9840, Note_on_c, 0, 69, 0
1, 9840, Note_on_c, 0, 67, 100
1, 9900, Note_on_c, 0, 67, 0
1, 9900, Note_on_c, 0, 65, 100
1, 9960, Note_on_c, 0, 65, 0
1, 9960, Note_on_c, 0, 47, 100
1, 9960, Note_on_c, 0, 64, 100
1, 10020, Note_on_c, 0, 64, 0
1, 10020, Note_on_c, 0, 67, 100
1, 10080, Note_on_c, 0, 67, 0
1, 10080, Note_on_c, 0, 47, 0
1, 10080, Note_on_c, 0, 55, 0
1, 10080, Note_on_c, 0, 43, 100
1, 10080, Note_on_c, 0, 65, 100
1, 10200, Note_on_c, 0, 65, 0
1, 10200, Note_on_c, 0, 43, 0
1, 10200, Note_on_c, 0, 55, 100
1, 10200, Note_on_c, 0, 50, 100
1, 10200, Note_on_c, 0, 62, 100
1, 10320, Note_on_c, 0, 62, 0
1, 10320, Note_on_c, 0, 43, 100
1, 10440, Note_on_c, 0, 43, 0
1, 10440, Note_on_c, 0, 50, 0
1, 10440, Note_on_c, 0, 55, 0
1, 10440, Note_on_c, 0, 55, 100
1, 10440, Note_on_c, 0, 47, 100
1, 10500, Note_on_c, 0, 55, 0
1, 10500, Note_on_c, 0, 55, 100
1, 10560, Note_on_c, 0, 55, 0
1, 10560, Note_on_c, 0, 47, 0
1, 10560, Note_on_c, 0, 59, 100
1, 10560, Note_on_c, 0, 50, 100
1, 10620, Note_on_c, 0, 59, 0
1, 10620, Note_on_c, 0, 59, 100
1, 10680, Note_on_c, 0, 59, 0
1, 10680, Note_on_c, 0, 50, 0
1, 10680, Note_on_c, 0, 62, 100
1, 10680, Note_on_c, 0, 55, 100
1, 10740, Note_on_c, 0, 62, 0
1, 10740, Note_on_c, 0, 62, 100
1, 10800, Note_on_c, 0, 62, 0
1, 10800, Note_on_c, 0, 55, 0
1, 10800, Note_on_c, 0, 43, 100
1, 10800, Note_on_c, 0, 65, 100
1, 10920, Note_on_c, 0, 65, 0
1, 10920, Note_on_c, 0, 43, 0
1, 10920, Note_on_c, 0, 50, 100
1, 10920, Note_on_c, 0, 55, 100
1, 10920, Note_on_c, 0, 62, 100
1, 11040, Note_on_c, 0, 62, 0
1, 11040, Note_on_c, 0, 47, 100
1, 11160, Note_on_c, 0, 47, 0
1, 11160, Note_on_c, 0, 55, 0
1, 11160, Note_on_c, 0, 50, 0
1, 11160, Note_on_c, 0, 55, 100
1, 11160, Note_on_c, 0, 67, 100
1, 11220, Note_on_c, 0, 67, 0
1, 11220, Note_on_c, 0, 69, 100
1, 11280, Note_on_c, 0, 69, 0
1, 11280, Note_on_c, 0, 67, 100
1, 11340, Note_on_c, 0, 67, 0
1, 11340, Note_on_c, 0, 65, 100
1, 11400, Note_on_c, 0, 65, 0
1, 11400, Note_on_c, 0, 55, 0
1, 11400, Note_on_c, 0, 50, 100
1, 11400, Note_on_c, 0, 64, 100
1, 11460, Note_on_c, 0, 64, 0
1, 11460, Note_on_c, 0, 62, 100
1, 11520, Note_on_c, 0, 62, 0
1, 11520, Note_on_c, 0, 50, 0
1, 11520, Note_on_c, 0, 48, 100
1, 11520, Note_on_c, 0, 52, 100
1, 11520, Note_on_c, 0, 55, 100
1, 11520, Note_on_c, 0, 60, 100
1, 11700, Note_on_c, 0, 55, 100
1, 11760, Note_on_c, 0, 55, 0
1, 11760, Note_on_c, 0, 55, 0
1, 11760, Note_on_c, 0, 48, 0
1, 11760, Note_on_c, 0, 52, 0
1, 11760, Note_on_c, 0, 60, 0
1, 11760, Note_on_c, 0, 55, 100
1, 11820, Note_on_c, 0, 55, 0
1, 11820, Note_on_c, 0, 55, 100
1, 11880, Note_on_c, 0, 55, 0
1, 11880, Note_on_c, 0, 48, 100
1, 11880, Note_on_c, 0, 60, 100
1, 12000, Note_on_c, 0, 60, 0
1, 12000, Note_on_c, 0, 48, 0
1, 12000, Note_on_c, 0, 52, 100
1, 12000, Note_on_c, 0, 64, 100
1, 12060, Note_on_c, 0, 64, 0
1, 12060, Note_on_c, 0, 55, 100
1, 12120, Note_on_c, 0, 55, 0
1, 12120, Note_on_c, 0, 55, 100
1, 12180, Note_on_c, 0, 55, 0
1, 12180, Note_on_c, 0, 55, 100
1, 12240, Note_on_c, 0, 55, 0
1, 12240, Note_on_c, 0, 52, 0
1, 12240, Note_on_c, 0, 48, 100
1, 12240, Note_on_c, 0, 60, 100
1, 12360, Note_on_c, 0, 60, 0
1, 12360, Note_on_c, 0, 48, 0
1, 12360, Note_on_c, 0, 52, 100
1, 12360, Note_on_c, 0, 64, 100
1, 12480, Note_on_c, 0, 64, 0
1, 12480, Note_on_c, 0, 43, 100
1, 12600, Note_on_c, 0, 43, 0
1, 12600, Note_on_c, 0, 52, 0
1, 12600, Note_on_c, 0, 60, 100
1, 12600, Note_on_c, 0, 48, 100
1, 12660, Note_on_c, 0, 60, 0
1, 12660, Note_on_c, 0, 60, 100
1, 12720, Note_on_c, 0, 60, 0
1, 12720, Note_on_c, 0, 59, 100
1, 12780, Note_on_c, 0, 59, 0
1, 12780, Note_on_c, 0, 59, 100
1, 12840, Note_on_c, 0, 59, 0
1, 12840, Note_on_c, 0, 57, 100
1, 12900, Note_on_c, 0, 57, 0
1, 12900, Note_on_c, 0, 57, 100
1, 12960, Note_on_c, 0, 57, 0
1, 12960, Note_on_c, 0, 48, 0
1, 12960, Note_on_c, 0, 55, 100
1, 12960, Note_on_c, 0, 43, 100
1, 13080, Note_on_c, 0, 43, 0
1, 13080, Note_on_c, 0, 50, 100
1, 13140, Note_on_c, 0, 55, 0
1, 13140, Note_on_c, 0, 55, 100
1, 13200, Note_on_c, 0, 55, 0
1, 13200, Note_on_c, 0, 55, 100
1, 13260, Note_on_c, 0, 55, 0
1, 13260, Note_on_c, 0, 55, 100
1, 13320, Note_on_c, 0, 55, 0
1, 13320, Note_on_c, 0, 50, 0
1, 13320, Note_on_c, 0, 43, 100
1, 13320, Note_on_c, 0, 59, 100
1, 13440, Note_on_c, 0, 59, 0
1, 13440, Note_on_c, 0, 43, 0
1, 13440, Note_on_c, 0, 50, 100
1, 13440, Note_on_c, 0, 62, 100
1, 13500, Note_on_c, 0, 62, 0
1, 13500, Note_on_c, 0, 55, 100
1, 13560, Note_on_c, 0, 55, 0
1, 13560, Note_on_c, 0, 55, 100
1, 13620, Note_on_c, 0, 55, 0
1, 13620, Note_on_c, 0, 55, 100
1, 13680, Note_on_c, 0, 55, 0
1, 13680, Note_on_c, 0, 50, 0
1, 13680, Note_on_c, 0, 43, 100
1, 13680, Note_on_c, 0, 59, 100
1, 13800, Note_on_c, 0, 59, 0
1, 13800, Note_on_c, 0, 43, 0
1, 13800, Note_on_c, 0, 50, 100
1, 13800, Note_on_c, 0, 62, 100
1, 13920, Note_on_c, 0, 62, 0
1, 13920, Note_on_c, 0, 47, 100
1, 14040, Note_on_c, 0, 47, 0
1, 14040, Note_on_c, 0, 50, 0
1, 14040, Note_on_c, 0, 67, 100
1, 14040, Note_on_c, 0, 55, 100
1, 14100, Note_on_c, 0, 67, 0
1, 14100, Note_on_c, 0, 69, 100
1, 14160, Note_on_c, 0, 69, 0
1, 14160, Note_on_c, 0, 67, 100
1, 14220, Note_on_c, 0, 67, 0
1, 14220, Note_on_c, 0, 65, 100
1, 14280, Note_on_c, 0, 65, 0
1, 14280, Note_on_c, 0, 50, 100
1, 14280, Note_on_c, 0, 64, 100
1, 14340, Note_on_c, 0, 64, 0
1, 14340, Note_on_c, 0, 62, 100
1, 14400, Note_on_c, 0, 62, 0
1, 14400, Note_on_c, 0, 50, 0
1, 14400, Note_on_c, 0, 55, 0
1, 14400, Note_on_c, 0, 48, 100
1, 14400, Note_on_c, 0, 52, 100
1, 14400, Note_on_c, 0, 55, 100
1, 14400, Note_on_c, 0, 60, 100
1, 14580, Note_on_c, 0, 55, 100
1, 14640, Note_on_c, 0, 55, 0
1, 14640, Note_on_c, 0, 55, 0
1, 14640, Note_on_c, 0, 48, 0
1, 14640, Note_on_c, 0, 52, 0
1, 14640, Note_on_c, 0, 60, 0
1, 14640, Note_on_c, 0, 55, 100
1, 14700, Note_on_c, 0, 55, 0
1, 14700, Note_on_c, 0, 55, 100
1, 14760, Note_on_c, 0, 55, 0
1, 14760, Note_on_c, 0, 48, 100
1, 14760, Note_on_c, 0, 60, 100
1, 14880, Note_on_c, 0, 60, 0
1, 14880, Note_on_c, 0, 48, 0
1, 14880, Note_on_c, 0, 52, 100
1, 14880, Note_on_c, 0, 64, 100
1, 14940, Note_on_c, 0, 64, 0
1, 14940, Note_on_c, 0, 55, 100
1, 15000, Note_on_c, 0, 55, 0
1, 15000, Note_on_c, 0, 55, 100
1, 15060, Note_on_c, 0, 55, 0
1, 15060, Note_on_c, 0, 55, 100
1, 15120, Note_on_c, 0, 55, 0
1, 15120, Note_on_c, 0, 52, 0
1, 15120, Note_on_c, 0, 48, 100
1, 15120, Note_on_c, 0, 60, 100
1, 15240, Note_on_c, 0, 60, 0
1, 15240, Note_on_c, 0, 48, 0
1, 15240, Note_on_c, 0, 52, 100
1, 15240, Note_on_c, 0, 64, 100
1, 15360, Note_on_c, 0, 64, 0
1, 15360, Note_on_c, 0, 43, 100
1, 15480, Note_on_c, 0, 43, 0
1, 15480, Note_on_c, 0, 52, 0
1, 15480, Note_on_c, 0, 60, 100
1, 15480, Note_on_c, 0, 48, 100
1, 15540, Note_on_c, 0, 60, 0
1, 15540, Note_on_c, 0, 60, 100
1, 15600, Note_on_c, 0, 60, 0
1, 15600, Note_on_c, 0, 59, 100
1, 15660, Note_on_c, 0, 59, 0
1, 15660, Note_on_c, 0, 59, 100
1, 15720, Note_on_c, 0, 59, 0
1, 15720, Note_on_c, 0, 57, 100
1, 15780, Note_on_c, 0, 57, 0
1, 15780, Note_on_c, 0, 57, 100
1, 15840, Note_on_c, 0, 57, 0
1, 15840, Note_on_c, 0, 48, 0
1, 15840, Note_on_c, 0, 55, 100
1, 15840, Note_on_c, 0, 43, 100
1, 15960, Note_on_c, 0, 43, 0
1, 15960, Note_on_c, 0, 50, 100
1, 16020, Note_on_c, 0, 55, 0
1, 16020, Note_on_c, 0, 55, 100
1, 16080, Note_on_c, 0, 55, 0
1, 16080, Note_on_c, 0, 55, 100
1, 16140, Note_on_c, 0, 55, 0
1, 16140, Note_on_c, 0, 55, 100
1, 16200, Note_on_c, 0, 55, 0
1, 16200, Note_on_c, 0, 50, 0
1, 16200, Note_on_c, 0, 43, 100
1, 16200, Note_on_c, 0, 59, 100
1, 16320, Note_on_c, 0, 59, 0
1, 16320, Note_on_c, 0, 43, 0
1, 16320, Note_on_c, 0, 50, 100
1, 16320, Note_on_c, 0, 62, 100
1, 16380, Note_on_c, 0, 62, 0
1, 16380, Note_on_c, 0, 55, 100
1, 16440, Note_on_c, 0, 55, 0
1, 16440, Note_on_c, 0, 55, 100
1, 16500, Note_on_c, 0, 55, 0
1, 16500, Note_on_c, 0, 55, 100
1, 16560, Note_on_c, 0, 55, 0
1, 16560, Note_on_c, 0, 50, 0
1, 16560, Note_on_c, 0, 43, 100
1, 16560, Note_on_c, 0, 59, 100
1, 16680, Note_on_c, 0, 59, 0
1, 16680, Note_on_c, 0, 43, 0
1, 16680, Note_on_c, 0, 50, 100
1, 16680, Note_on_c, 0, 62, 100
1, 16800, Note_on_c, 0, 62, 0
1, 16800, Note_on_c, 0, 47, 100
1, 16920, Note_on_c, 0, 47, 0
1, 16920, Note_on_c, 0, 50, 0
1, 16920, Note_on_c, 0, 67, 100
1, 16920, Note_on_c, 0, 55, 100
1, 16980, Note_on_c, 0, 67, 0
1, 16980, Note_on_c, 0, 69, 100
1, 17040, Note_on_c, 0, 69, 0
1, 17040, Note_on_c, 0, 67, 100
1, 17100, Note_on_c, 0, 67, 0
1, 17100, Note_on_c, 0, 65, 100
1, 17160, Note_on_c, 0, 65, 0
1, 17160, Note_on_c, 0, 50, 100
1, 17160, Note_on_c, 0, 64, 100
1, 17220, Note_on_c, 0, 64, 0
1, 17220, Note_on_c, 0, 62, 100
1, 17280, Note_on_c, 0, 62, 0
1, 17280, Note_on_c, 0, 50, 0
1, 17280, Note_on_c, 0, 55, 0
1, 17280, Note_on_c, 0, 48, 100
1, 17280, Note_on_c, 0, 52, 100
1, 17280, Note_on_c, 0, 55, 100
1, 17280, Note_on_c, 0, 60, 100
1, 17520, Note_on_c, 0, 60, 0
1, 17520, Note_on_c, 0, 48, 0
1, 17520, Note_on_c, 0, 52, 0
1, 17520, Note_on_c, 0, 55, 0
1, 17520, End_track
0, 0, End_of_file
