0, 0, Header, 1, 12, 192
1, 0, Start_track
1, 0, Copyright_t, "Copyright (C) 1991 by Voyetra Technologies"
1, 0, Time_signature, 4, 2, 24, 8
1, 0, Tempo, 348837
1, 0, Key_signature, 0, "major"
1, 0, End_track
2, 0, Start_track
2, 0, MIDI_port, 0
2, 0, Title_t, "La Cucaracha        "
2, 0, End_track
3, 0, Start_track
3, 0, MIDI_port, 0
3, 0, Title_t, "Traditional         "
3, 0, End_track
4, 0, Start_track
4, 0, MIDI_port, 0
4, 0, Title_t, "Copyright (C) 1991  "
4, 0, End_track
5, 0, Start_track
5, 0, MIDI_port, 0
5, 0, Title_t, "Voyetra Technologies"
5, 0, End_track
6, 0, Start_track
6, 0, MIDI_port, 1
6, 0, Title_t, "Bass Drum           "
6, 0, Program_c, 9, 126
6, 384, Note_on_c, 9, 36, 127
6, 612, Note_off_c, 9, 36, 64
6, 864, Note_on_c, 9, 36, 127
6, 976, Note_off_c, 9, 36, 64
6, 1056, Note_on_c, 9, 36, 120
6, 1110, Note_off_c, 9, 36, 64
6, 1152, Note_on_c, 9, 36, 125
6, 1416, Note_off_c, 9, 36, 64
6, 1632, Note_on_c, 9, 36, 127
6, 1708, Note_off_c, 9, 36, 64
6, 1824, Note_on_c, 9, 36, 126
6, 1886, Note_off_c, 9, 36, 64
6, 1920, Note_on_c, 9, 36, 127
6, 2179, Note_off_c, 9, 36, 64
6, 2400, Note_on_c, 9, 36, 127
6, 2516, Note_off_c, 9, 36, 64
6, 2592, Note_on_c, 9, 36, 127
6, 2646, Note_off_c, 9, 36, 64
6, 2688, Note_on_c, 9, 36, 127
6, 2944, Note_off_c, 9, 36, 64
6, 3168, Note_on_c, 9, 36, 127
6, 3253, Note_off_c, 9, 36, 64
6, 3360, Note_on_c, 9, 36, 127
6, 3418, Note_off_c, 9, 36, 64
6, 3456, Note_on_c, 9, 36, 127
6, 3707, Note_off_c, 9, 36, 64
6, 3936, Note_on_c, 9, 36, 127
6, 4048, Note_off_c, 9, 36, 64
6, 4128, Note_on_c, 9, 36, 126
6, 4182, Note_off_c, 9, 36, 64
6, 4224, Note_on_c, 9, 36, 126
6, 4484, Note_off_c, 9, 36, 64
6, 4704, Note_on_c, 9, 36, 127
6, 4807, Note_off_c, 9, 36, 64
6, 4896, Note_on_c, 9, 36, 127
6, 4954, Note_off_c, 9, 36, 64
6, 4992, Note_on_c, 9, 36, 127
6, 5221, Note_off_c, 9, 36, 64
6, 5472, Note_on_c, 9, 36, 127
6, 5588, Note_off_c, 9, 36, 64
6, 5664, Note_on_c, 9, 36, 126
6, 5713, Note_off_c, 9, 36, 64
6, 5760, Note_on_c, 9, 36, 127
6, 6020, Note_off_c, 9, 36, 64
6, 6528, Note_on_c, 9, 36, 127
6, 6756, Note_off_c, 9, 36, 64
6, 7008, Note_on_c, 9, 36, 127
6, 7120, Note_off_c, 9, 36, 64
6, 7200, Note_on_c, 9, 36, 120
6, 7254, Note_off_c, 9, 36, 64
6, 7296, Note_on_c, 9, 36, 125
6, 7560, Note_off_c, 9, 36, 64
6, 7776, Note_on_c, 9, 36, 127
6, 7852, Note_off_c, 9, 36, 64
6, 7968, Note_on_c, 9, 36, 126
6, 8030, Note_off_c, 9, 36, 64
6, 8064, Note_on_c, 9, 36, 127
6, 8323, Note_off_c, 9, 36, 64
6, 8544, Note_on_c, 9, 36, 127
6, 8660, Note_off_c, 9, 36, 64
6, 8736, Note_on_c, 9, 36, 127
6, 8790, Note_off_c, 9, 36, 64
6, 8832, Note_on_c, 9, 36, 127
6, 9088, Note_off_c, 9, 36, 64
6, 9312, Note_on_c, 9, 36, 127
6, 9397, Note_off_c, 9, 36, 64
6, 9504, Note_on_c, 9, 36, 127
6, 9562, Note_off_c, 9, 36, 64
6, 9600, Note_on_c, 9, 36, 127
6, 9851, Note_off_c, 9, 36, 64
6, 10080, Note_on_c, 9, 36, 127
6, 10192, Note_off_c, 9, 36, 64
6, 10272, Note_on_c, 9, 36, 126
6, 10326, Note_off_c, 9, 36, 64
6, 10368, Note_on_c, 9, 36, 126
6, 10628, Note_off_c, 9, 36, 64
6, 10848, Note_on_c, 9, 36, 127
6, 10951, Note_off_c, 9, 36, 64
6, 11040, Note_on_c, 9, 36, 127
6, 11098, Note_off_c, 9, 36, 64
6, 11136, Note_on_c, 9, 36, 127
6, 11365, Note_off_c, 9, 36, 64
6, 11616, Note_on_c, 9, 36, 127
6, 11732, Note_off_c, 9, 36, 64
6, 11808, Note_on_c, 9, 36, 126
6, 11857, Note_off_c, 9, 36, 64
6, 11904, Note_on_c, 9, 36, 127
6, 12164, Note_off_c, 9, 36, 64
6, 12672, Note_on_c, 9, 36, 127
6, 12900, Note_off_c, 9, 36, 64
6, 13152, Note_on_c, 9, 36, 127
6, 13264, Note_off_c, 9, 36, 64
6, 13344, Note_on_c, 9, 36, 120
6, 13398, Note_off_c, 9, 36, 64
6, 13440, Note_on_c, 9, 36, 125
6, 13704, Note_off_c, 9, 36, 64
6, 13920, Note_on_c, 9, 36, 127
6, 13996, Note_off_c, 9, 36, 64
6, 14112, Note_on_c, 9, 36, 126
6, 14174, Note_off_c, 9, 36, 64
6, 14208, Note_on_c, 9, 36, 127
6, 14467, Note_off_c, 9, 36, 64
6, 14688, Note_on_c, 9, 36, 127
6, 14804, Note_off_c, 9, 36, 64
6, 14880, Note_on_c, 9, 36, 127
6, 14934, Note_off_c, 9, 36, 64
6, 14976, Note_on_c, 9, 36, 127
6, 15232, Note_off_c, 9, 36, 64
6, 15456, Note_on_c, 9, 36, 127
6, 15541, Note_off_c, 9, 36, 64
6, 15648, Note_on_c, 9, 36, 127
6, 15706, Note_off_c, 9, 36, 64
6, 15744, Note_on_c, 9, 36, 127
6, 15995, Note_off_c, 9, 36, 64
6, 16224, Note_on_c, 9, 36, 127
6, 16336, Note_off_c, 9, 36, 64
6, 16416, Note_on_c, 9, 36, 126
6, 16470, Note_off_c, 9, 36, 64
6, 16512, Note_on_c, 9, 36, 126
6, 16772, Note_off_c, 9, 36, 64
6, 16992, Note_on_c, 9, 36, 127
6, 17095, Note_off_c, 9, 36, 64
6, 17184, Note_on_c, 9, 36, 127
6, 17242, Note_off_c, 9, 36, 64
6, 17280, Note_on_c, 9, 36, 127
6, 17509, Note_off_c, 9, 36, 64
6, 17760, Note_on_c, 9, 36, 127
6, 17876, Note_off_c, 9, 36, 64
6, 17952, Note_on_c, 9, 36, 126
6, 18001, Note_off_c, 9, 36, 64
6, 18048, Note_on_c, 9, 36, 127
6, 18308, Note_off_c, 9, 36, 64
6, 18816, Note_on_c, 9, 36, 127
6, 19044, Note_off_c, 9, 36, 64
6, 19296, Note_on_c, 9, 36, 127
6, 19408, Note_off_c, 9, 36, 64
6, 19488, Note_on_c, 9, 36, 120
6, 19542, Note_off_c, 9, 36, 64
6, 19584, Note_on_c, 9, 36, 125
6, 19848, Note_off_c, 9, 36, 64
6, 20064, Note_on_c, 9, 36, 127
6, 20140, Note_off_c, 9, 36, 64
6, 20256, Note_on_c, 9, 36, 126
6, 20318, Note_off_c, 9, 36, 64
6, 20352, Note_on_c, 9, 36, 127
6, 20611, Note_off_c, 9, 36, 64
6, 20832, Note_on_c, 9, 36, 127
6, 20948, Note_off_c, 9, 36, 64
6, 21024, Note_on_c, 9, 36, 127
6, 21078, Note_off_c, 9, 36, 64
6, 21120, Note_on_c, 9, 36, 127
6, 21376, Note_off_c, 9, 36, 64
6, 21600, Note_on_c, 9, 36, 127
6, 21685, Note_off_c, 9, 36, 64
6, 21792, Note_on_c, 9, 36, 127
6, 21850, Note_off_c, 9, 36, 64
6, 21888, Note_on_c, 9, 36, 127
6, 22139, Note_off_c, 9, 36, 64
6, 22368, Note_on_c, 9, 36, 127
6, 22480, Note_off_c, 9, 36, 64
6, 22560, Note_on_c, 9, 36, 126
6, 22614, Note_off_c, 9, 36, 64
6, 22656, Note_on_c, 9, 36, 126
6, 22916, Note_off_c, 9, 36, 64
6, 23136, Note_on_c, 9, 36, 127
6, 23239, Note_off_c, 9, 36, 64
6, 23328, Note_on_c, 9, 36, 127
6, 23386, Note_off_c, 9, 36, 64
6, 23424, Note_on_c, 9, 36, 127
6, 23653, Note_off_c, 9, 36, 64
6, 23904, Note_on_c, 9, 36, 127
6, 24020, Note_off_c, 9, 36, 64
6, 24096, Note_on_c, 9, 36, 126
6, 24145, Note_off_c, 9, 36, 64
6, 24192, Note_on_c, 9, 36, 127
6, 24452, Note_off_c, 9, 36, 64
6, 24960, Note_on_c, 9, 36, 127
6, 25188, Note_off_c, 9, 36, 64
6, 25440, Note_on_c, 9, 36, 127
6, 25552, Note_off_c, 9, 36, 64
6, 25632, Note_on_c, 9, 36, 120
6, 25686, Note_off_c, 9, 36, 64
6, 25728, Note_on_c, 9, 36, 125
6, 25992, Note_off_c, 9, 36, 64
6, 26208, Note_on_c, 9, 36, 127
6, 26284, Note_off_c, 9, 36, 64
6, 26400, Note_on_c, 9, 36, 126
6, 26462, Note_off_c, 9, 36, 64
6, 26496, Note_on_c, 9, 36, 127
6, 26755, Note_off_c, 9, 36, 64
6, 26976, Note_on_c, 9, 36, 127
6, 27092, Note_off_c, 9, 36, 64
6, 27168, Note_on_c, 9, 36, 127
6, 27222, Note_off_c, 9, 36, 64
6, 27264, Note_on_c, 9, 36, 127
6, 27520, Note_off_c, 9, 36, 64
6, 27744, Note_on_c, 9, 36, 127
6, 27829, Note_off_c, 9, 36, 64
6, 27936, Note_on_c, 9, 36, 127
6, 27994, Note_off_c, 9, 36, 64
6, 28032, Note_on_c, 9, 36, 127
6, 28283, Note_off_c, 9, 36, 64
6, 28512, Note_on_c, 9, 36, 127
6, 28624, Note_off_c, 9, 36, 64
6, 28704, Note_on_c, 9, 36, 126
6, 28758, Note_off_c, 9, 36, 64
6, 28800, Note_on_c, 9, 36, 126
6, 29060, Note_off_c, 9, 36, 64
6, 29280, Note_on_c, 9, 36, 127
6, 29383, Note_off_c, 9, 36, 64
6, 29472, Note_on_c, 9, 36, 127
6, 29530, Note_off_c, 9, 36, 64
6, 29568, Note_on_c, 9, 36, 127
6, 29797, Note_off_c, 9, 36, 64
6, 30048, Note_on_c, 9, 36, 127
6, 30164, Note_off_c, 9, 36, 64
6, 30240, Note_on_c, 9, 36, 126
6, 30289, Note_off_c, 9, 36, 64
6, 30336, Note_on_c, 9, 36, 127
6, 30596, Note_off_c, 9, 36, 64
6, 31104, Note_on_c, 9, 36, 127
6, 31332, Note_off_c, 9, 36, 64
6, 31584, Note_on_c, 9, 36, 127
6, 31696, Note_off_c, 9, 36, 64
6, 31776, Note_on_c, 9, 36, 120
6, 31830, Note_off_c, 9, 36, 64
6, 31872, Note_on_c, 9, 36, 125
6, 32136, Note_off_c, 9, 36, 64
6, 32352, Note_on_c, 9, 36, 127
6, 32428, Note_off_c, 9, 36, 64
6, 32544, Note_on_c, 9, 36, 126
6, 32606, Note_off_c, 9, 36, 64
6, 32640, Note_on_c, 9, 36, 127
6, 32899, Note_off_c, 9, 36, 64
6, 33120, Note_on_c, 9, 36, 127
6, 33236, Note_off_c, 9, 36, 64
6, 33312, Note_on_c, 9, 36, 127
6, 33366, Note_off_c, 9, 36, 64
6, 33408, Note_on_c, 9, 36, 127
6, 33664, Note_off_c, 9, 36, 64
6, 33888, Note_on_c, 9, 36, 127
6, 33973, Note_off_c, 9, 36, 64
6, 34080, Note_on_c, 9, 36, 127
6, 34138, Note_off_c, 9, 36, 64
6, 34176, Note_on_c, 9, 36, 127
6, 34427, Note_off_c, 9, 36, 64
6, 34656, Note_on_c, 9, 36, 127
6, 34768, Note_off_c, 9, 36, 64
6, 34848, Note_on_c, 9, 36, 126
6, 34902, Note_off_c, 9, 36, 64
6, 34944, Note_on_c, 9, 36, 126
6, 35204, Note_off_c, 9, 36, 64
6, 35424, Note_on_c, 9, 36, 127
6, 35527, Note_off_c, 9, 36, 64
6, 35616, Note_on_c, 9, 36, 127
6, 35674, Note_off_c, 9, 36, 64
6, 35712, Note_on_c, 9, 36, 127
6, 35941, Note_off_c, 9, 36, 64
6, 36192, Note_on_c, 9, 36, 127
6, 36308, Note_off_c, 9, 36, 64
6, 36384, Note_on_c, 9, 36, 126
6, 36433, Note_off_c, 9, 36, 64
6, 36480, Note_on_c, 9, 36, 127
6, 36557, Note_off_c, 9, 36, 64
6, 36768, Note_on_c, 9, 36, 127
6, 36820, Note_off_c, 9, 36, 64
6, 36864, Note_on_c, 9, 36, 127
6, 36925, Note_off_c, 9, 36, 64
6, 36925, End_track
7, 0, Start_track
7, 0, MIDI_port, 1
7, 0, Title_t, "Snare Drum          "
7, 0, Program_c, 9, 126
7, 96, Note_on_c, 9, 38, 127
7, 145, Note_off_c, 9, 38, 64
7, 192, Note_on_c, 9, 38, 127
7, 237, Note_off_c, 9, 38, 64
7, 288, Note_on_c, 9, 38, 126
7, 338, Note_off_c, 9, 38, 64
7, 672, Note_on_c, 9, 38, 127
7, 762, Note_off_c, 9, 38, 64
7, 1440, Note_on_c, 9, 38, 127
7, 1539, Note_off_c, 9, 38, 64
7, 2208, Note_on_c, 9, 38, 127
7, 2302, Note_off_c, 9, 38, 64
7, 2976, Note_on_c, 9, 38, 127
7, 3079, Note_off_c, 9, 38, 64
7, 3744, Note_on_c, 9, 38, 127
7, 3820, Note_off_c, 9, 38, 64
7, 4512, Note_on_c, 9, 38, 127
7, 4597, Note_off_c, 9, 38, 64
7, 5280, Note_on_c, 9, 38, 127
7, 5365, Note_off_c, 9, 38, 64
7, 6048, Note_on_c, 9, 38, 127
7, 6143, Note_off_c, 9, 38, 64
7, 6240, Note_on_c, 9, 38, 127
7, 6284, Note_off_c, 9, 38, 64
7, 6336, Note_on_c, 9, 38, 127
7, 6377, Note_off_c, 9, 38, 64
7, 6432, Note_on_c, 9, 38, 127
7, 6463, Note_off_c, 9, 38, 64
7, 6816, Note_on_c, 9, 38, 127
7, 6906, Note_off_c, 9, 38, 64
7, 7584, Note_on_c, 9, 38, 127
7, 7683, Note_off_c, 9, 38, 64
7, 8352, Note_on_c, 9, 38, 127
7, 8446, Note_off_c, 9, 38, 64
7, 9120, Note_on_c, 9, 38, 127
7, 9223, Note_off_c, 9, 38, 64
7, 9888, Note_on_c, 9, 38, 127
7, 9964, Note_off_c, 9, 38, 64
7, 10656, Note_on_c, 9, 38, 127
7, 10741, Note_off_c, 9, 38, 64
7, 11424, Note_on_c, 9, 38, 127
7, 11509, Note_off_c, 9, 38, 64
7, 12192, Note_on_c, 9, 38, 127
7, 12287, Note_off_c, 9, 38, 64
7, 12384, Note_on_c, 9, 38, 127
7, 12428, Note_off_c, 9, 38, 64
7, 12480, Note_on_c, 9, 38, 127
7, 12521, Note_off_c, 9, 38, 64
7, 12576, Note_on_c, 9, 38, 127
7, 12607, Note_off_c, 9, 38, 64
7, 12960, Note_on_c, 9, 38, 127
7, 13050, Note_off_c, 9, 38, 64
7, 13728, Note_on_c, 9, 38, 127
7, 13827, Note_off_c, 9, 38, 64
7, 14496, Note_on_c, 9, 38, 127
7, 14590, Note_off_c, 9, 38, 64
7, 15264, Note_on_c, 9, 38, 127
7, 15367, Note_off_c, 9, 38, 64
7, 16032, Note_on_c, 9, 38, 127
7, 16108, Note_off_c, 9, 38, 64
7, 16800, Note_on_c, 9, 38, 127
7, 16885, Note_off_c, 9, 38, 64
7, 17568, Note_on_c, 9, 38, 127
7, 17653, Note_off_c, 9, 38, 64
7, 18336, Note_on_c, 9, 38, 127
7, 18431, Note_off_c, 9, 38, 64
7, 18528, Note_on_c, 9, 38, 127
7, 18572, Note_off_c, 9, 38, 64
7, 18624, Note_on_c, 9, 38, 127
7, 18665, Note_off_c, 9, 38, 64
7, 18720, Note_on_c, 9, 38, 127
7, 18751, Note_off_c, 9, 38, 64
7, 19104, Note_on_c, 9, 38, 127
7, 19194, Note_off_c, 9, 38, 64
7, 19872, Note_on_c, 9, 38, 127
7, 19971, Note_off_c, 9, 38, 64
7, 20640, Note_on_c, 9, 38, 127
7, 20734, Note_off_c, 9, 38, 64
7, 21408, Note_on_c, 9, 38, 127
7, 21511, Note_off_c, 9, 38, 64
7, 22176, Note_on_c, 9, 38, 127
7, 22252, Note_off_c, 9, 38, 64
7, 22944, Note_on_c, 9, 38, 127
7, 23029, Note_off_c, 9, 38, 64
7, 23712, Note_on_c, 9, 38, 127
7, 23797, Note_off_c, 9, 38, 64
7, 24480, Note_on_c, 9, 38, 127
7, 24575, Note_off_c, 9, 38, 64
7, 24672, Note_on_c, 9, 38, 127
7, 24716, Note_off_c, 9, 38, 64
7, 24768, Note_on_c, 9, 38, 127
7, 24809, Note_off_c, 9, 38, 64
7, 24864, Note_on_c, 9, 38, 127
7, 24895, Note_off_c, 9, 38, 64
7, 25248, Note_on_c, 9, 38, 127
7, 25338, Note_off_c, 9, 38, 64
7, 26016, Note_on_c, 9, 38, 127
7, 26115, Note_off_c, 9, 38, 64
7, 26784, Note_on_c, 9, 38, 127
7, 26878, Note_off_c, 9, 38, 64
7, 27552, Note_on_c, 9, 38, 127
7, 27655, Note_off_c, 9, 38, 64
7, 28320, Note_on_c, 9, 38, 127
7, 28396, Note_off_c, 9, 38, 64
7, 29088, Note_on_c, 9, 38, 127
7, 29173, Note_off_c, 9, 38, 64
7, 29856, Note_on_c, 9, 38, 127
7, 29941, Note_off_c, 9, 38, 64
7, 30624, Note_on_c, 9, 38, 127
7, 30719, Note_off_c, 9, 38, 64
7, 30816, Note_on_c, 9, 38, 127
7, 30860, Note_off_c, 9, 38, 64
7, 30912, Note_on_c, 9, 38, 127
7, 30953, Note_off_c, 9, 38, 64
7, 31008, Note_on_c, 9, 38, 127
7, 31039, Note_off_c, 9, 38, 64
7, 31392, Note_on_c, 9, 38, 127
7, 31482, Note_off_c, 9, 38, 64
7, 32160, Note_on_c, 9, 38, 127
7, 32259, Note_off_c, 9, 38, 64
7, 32928, Note_on_c, 9, 38, 127
7, 33022, Note_off_c, 9, 38, 64
7, 33696, Note_on_c, 9, 38, 127
7, 33799, Note_off_c, 9, 38, 64
7, 34464, Note_on_c, 9, 38, 127
7, 34540, Note_off_c, 9, 38, 64
7, 35232, Note_on_c, 9, 38, 127
7, 35317, Note_off_c, 9, 38, 64
7, 36000, Note_on_c, 9, 38, 127
7, 36085, Note_off_c, 9, 38, 64
7, 36672, Note_on_c, 9, 38, 127
7, 36723, Note_off_c, 9, 38, 64
7, 36723, End_track
8, 0, Start_track
8, 0, MIDI_port, 1
8, 0, Title_t, "High Hat            "
8, 0, Program_c, 9, 126
8, 384, Note_on_c, 9, 42, 122
8, 433, Note_off_c, 9, 42, 64
8, 480, Note_on_c, 9, 42, 111
8, 529, Note_off_c, 9, 42, 64
8, 576, Note_on_c, 9, 42, 120
8, 638, Note_off_c, 9, 42, 64
8, 768, Note_on_c, 9, 42, 116
8, 830, Note_off_c, 9, 42, 64
8, 960, Note_on_c, 9, 42, 117
8, 1028, Note_off_c, 9, 42, 64
8, 1152, Note_on_c, 9, 42, 119
8, 1219, Note_off_c, 9, 42, 64
8, 1248, Note_on_c, 9, 42, 111
8, 1306, Note_off_c, 9, 42, 64
8, 1344, Note_on_c, 9, 42, 117
8, 1411, Note_off_c, 9, 42, 64
8, 1536, Note_on_c, 9, 42, 127
8, 1599, Note_off_c, 9, 42, 64
8, 1728, Note_on_c, 9, 42, 122
8, 1795, Note_off_c, 9, 42, 64
8, 1920, Note_on_c, 9, 42, 126
8, 1982, Note_off_c, 9, 42, 64
8, 2016, Note_on_c, 9, 42, 109
8, 2069, Note_off_c, 9, 42, 64
8, 2112, Note_on_c, 9, 42, 120
8, 2179, Note_off_c, 9, 42, 64
8, 2304, Note_on_c, 9, 42, 125
8, 2371, Note_off_c, 9, 42, 64
8, 2496, Note_on_c, 9, 42, 127
8, 2563, Note_off_c, 9, 42, 64
8, 2688, Note_on_c, 9, 42, 126
8, 2751, Note_off_c, 9, 42, 64
8, 2784, Note_on_c, 9, 42, 117
8, 2838, Note_off_c, 9, 42, 64
8, 2880, Note_on_c, 9, 42, 127
8, 2948, Note_off_c, 9, 42, 64
8, 3072, Note_on_c, 9, 42, 127
8, 3134, Note_off_c, 9, 42, 64
8, 3264, Note_on_c, 9, 42, 122
8, 3331, Note_off_c, 9, 42, 64
8, 3456, Note_on_c, 9, 42, 125
8, 3510, Note_off_c, 9, 42, 64
8, 3552, Note_on_c, 9, 42, 111
8, 3597, Note_off_c, 9, 42, 64
8, 3648, Note_on_c, 9, 42, 124
8, 3707, Note_off_c, 9, 42, 64
8, 3840, Note_on_c, 9, 42, 116
8, 3903, Note_off_c, 9, 42, 64
8, 4032, Note_on_c, 9, 42, 122
8, 4100, Note_off_c, 9, 42, 64
8, 4224, Note_on_c, 9, 42, 122
8, 4278, Note_off_c, 9, 42, 64
8, 4320, Note_on_c, 9, 42, 114
8, 4369, Note_off_c, 9, 42, 64
8, 4416, Note_on_c, 9, 42, 117
8, 4478, Note_off_c, 9, 42, 64
8, 4608, Note_on_c, 9, 42, 127
8, 4671, Note_off_c, 9, 42, 64
8, 4800, Note_on_c, 9, 42, 127
8, 4863, Note_off_c, 9, 42, 64
8, 4992, Note_on_c, 9, 42, 127
8, 5046, Note_off_c, 9, 42, 64
8, 5088, Note_on_c, 9, 42, 114
8, 5137, Note_off_c, 9, 42, 64
8, 5184, Note_on_c, 9, 42, 127
8, 5256, Note_off_c, 9, 42, 64
8, 5376, Note_on_c, 9, 42, 127
8, 5443, Note_off_c, 9, 42, 64
8, 5568, Note_on_c, 9, 42, 127
8, 5631, Note_off_c, 9, 42, 64
8, 5760, Note_on_c, 9, 42, 127
8, 5813, Note_off_c, 9, 42, 64
8, 5856, Note_on_c, 9, 42, 116
8, 5896, Note_off_c, 9, 42, 64
8, 5952, Note_on_c, 9, 42, 125
8, 6015, Note_off_c, 9, 42, 64
8, 6144, Note_on_c, 9, 42, 127
8, 6197, Note_off_c, 9, 42, 64
8, 6336, Note_on_c, 9, 42, 125
8, 6376, Note_off_c, 9, 42, 64
8, 6528, Note_on_c, 9, 42, 122
8, 6577, Note_off_c, 9, 42, 64
8, 6624, Note_on_c, 9, 42, 111
8, 6673, Note_off_c, 9, 42, 64
8, 6720, Note_on_c, 9, 42, 120
8, 6782, Note_off_c, 9, 42, 64
8, 6912, Note_on_c, 9, 42, 116
8, 6974, Note_off_c, 9, 42, 64
8, 7104, Note_on_c, 9, 42, 117
8, 7172, Note_off_c, 9, 42, 64
8, 7296, Note_on_c, 9, 42, 119
8, 7363, Note_off_c, 9, 42, 64
8, 7392, Note_on_c, 9, 42, 111
8, 7450, Note_off_c, 9, 42, 64
8, 7488, Note_on_c, 9, 42, 117
8, 7555, Note_off_c, 9, 42, 64
8, 7680, Note_on_c, 9, 42, 127
8, 7743, Note_off_c, 9, 42, 64
8, 7872, Note_on_c, 9, 42, 122
8, 7939, Note_off_c, 9, 42, 64
8, 8064, Note_on_c, 9, 42, 126
8, 8126, Note_off_c, 9, 42, 64
8, 8160, Note_on_c, 9, 42, 109
8, 8213, Note_off_c, 9, 42, 64
8, 8256, Note_on_c, 9, 42, 120
8, 8323, Note_off_c, 9, 42, 64
8, 8448, Note_on_c, 9, 42, 125
8, 8515, Note_off_c, 9, 42, 64
8, 8640, Note_on_c, 9, 42, 127
8, 8707, Note_off_c, 9, 42, 64
8, 8832, Note_on_c, 9, 42, 126
8, 8895, Note_off_c, 9, 42, 64
8, 8928, Note_on_c, 9, 42, 117
8, 8982, Note_off_c, 9, 42, 64
8, 9024, Note_on_c, 9, 42, 127
8, 9092, Note_off_c, 9, 42, 64
8, 9216, Note_on_c, 9, 42, 127
8, 9278, Note_off_c, 9, 42, 64
8, 9408, Note_on_c, 9, 42, 122
8, 9475, Note_off_c, 9, 42, 64
8, 9600, Note_on_c, 9, 42, 125
8, 9654, Note_off_c, 9, 42, 64
8, 9696, Note_on_c, 9, 42, 111
8, 9741, Note_off_c, 9, 42, 64
8, 9792, Note_on_c, 9, 42, 124
8, 9851, Note_off_c, 9, 42, 64
8, 9984, Note_on_c, 9, 42, 116
8, 10047, Note_off_c, 9, 42, 64
8, 10176, Note_on_c, 9, 42, 122
8, 10244, Note_off_c, 9, 42, 64
8, 10368, Note_on_c, 9, 42, 122
8, 10422, Note_off_c, 9, 42, 64
8, 10464, Note_on_c, 9, 42, 114
8, 10513, Note_off_c, 9, 42, 64
8, 10560, Note_on_c, 9, 42, 117
8, 10622, Note_off_c, 9, 42, 64
8, 10752, Note_on_c, 9, 42, 127
8, 10815, Note_off_c, 9, 42, 64
8, 10944, Note_on_c, 9, 42, 127
8, 11007, Note_off_c, 9, 42, 64
8, 11136, Note_on_c, 9, 42, 127
8, 11190, Note_off_c, 9, 42, 64
8, 11232, Note_on_c, 9, 42, 114
8, 11281, Note_off_c, 9, 42, 64
8, 11328, Note_on_c, 9, 42, 127
8, 11400, Note_off_c, 9, 42, 64
8, 11520, Note_on_c, 9, 42, 127
8, 11587, Note_off_c, 9, 42, 64
8, 11712, Note_on_c, 9, 42, 127
8, 11775, Note_off_c, 9, 42, 64
8, 11904, Note_on_c, 9, 42, 127
8, 11957, Note_off_c, 9, 42, 64
8, 12000, Note_on_c, 9, 42, 116
8, 12040, Note_off_c, 9, 42, 64
8, 12096, Note_on_c, 9, 42, 125
8, 12159, Note_off_c, 9, 42, 64
8, 12288, Note_on_c, 9, 42, 127
8, 12341, Note_off_c, 9, 42, 64
8, 12480, Note_on_c, 9, 42, 125
8, 12520, Note_off_c, 9, 42, 64
8, 12672, Note_on_c, 9, 42, 122
8, 12721, Note_off_c, 9, 42, 64
8, 12768, Note_on_c, 9, 42, 111
8, 12817, Note_off_c, 9, 42, 64
8, 12864, Note_on_c, 9, 42, 120
8, 12926, Note_off_c, 9, 42, 64
8, 13056, Note_on_c, 9, 42, 116
8, 13118, Note_off_c, 9, 42, 64
8, 13248, Note_on_c, 9, 42, 117
8, 13316, Note_off_c, 9, 42, 64
8, 13440, Note_on_c, 9, 42, 119
8, 13507, Note_off_c, 9, 42, 64
8, 13536, Note_on_c, 9, 42, 111
8, 13594, Note_off_c, 9, 42, 64
8, 13632, Note_on_c, 9, 42, 117
8, 13699, Note_off_c, 9, 42, 64
8, 13824, Note_on_c, 9, 42, 127
8, 13887, Note_off_c, 9, 42, 64
8, 14016, Note_on_c, 9, 42, 122
8, 14083, Note_off_c, 9, 42, 64
8, 14208, Note_on_c, 9, 42, 126
8, 14270, Note_off_c, 9, 42, 64
8, 14304, Note_on_c, 9, 42, 109
8, 14357, Note_off_c, 9, 42, 64
8, 14400, Note_on_c, 9, 42, 120
8, 14467, Note_off_c, 9, 42, 64
8, 14592, Note_on_c, 9, 42, 125
8, 14659, Note_off_c, 9, 42, 64
8, 14784, Note_on_c, 9, 42, 127
8, 14851, Note_off_c, 9, 42, 64
8, 14976, Note_on_c, 9, 42, 126
8, 15039, Note_off_c, 9, 42, 64
8, 15072, Note_on_c, 9, 42, 117
8, 15126, Note_off_c, 9, 42, 64
8, 15168, Note_on_c, 9, 42, 127
8, 15236, Note_off_c, 9, 42, 64
8, 15360, Note_on_c, 9, 42, 127
8, 15422, Note_off_c, 9, 42, 64
8, 15552, Note_on_c, 9, 42, 122
8, 15619, Note_off_c, 9, 42, 64
8, 15744, Note_on_c, 9, 42, 125
8, 15798, Note_off_c, 9, 42, 64
8, 15840, Note_on_c, 9, 42, 111
8, 15885, Note_off_c, 9, 42, 64
8, 15936, Note_on_c, 9, 42, 124
8, 15995, Note_off_c, 9, 42, 64
8, 16128, Note_on_c, 9, 42, 116
8, 16191, Note_off_c, 9, 42, 64
8, 16320, Note_on_c, 9, 42, 122
8, 16388, Note_off_c, 9, 42, 64
8, 16512, Note_on_c, 9, 42, 122
8, 16566, Note_off_c, 9, 42, 64
8, 16608, Note_on_c, 9, 42, 114
8, 16657, Note_off_c, 9, 42, 64
8, 16704, Note_on_c, 9, 42, 117
8, 16766, Note_off_c, 9, 42, 64
8, 16896, Note_on_c, 9, 42, 127
8, 16959, Note_off_c, 9, 42, 64
8, 17088, Note_on_c, 9, 42, 127
8, 17151, Note_off_c, 9, 42, 64
8, 17280, Note_on_c, 9, 42, 127
8, 17334, Note_off_c, 9, 42, 64
8, 17376, Note_on_c, 9, 42, 114
8, 17425, Note_off_c, 9, 42, 64
8, 17472, Note_on_c, 9, 42, 127
8, 17544, Note_off_c, 9, 42, 64
8, 17664, Note_on_c, 9, 42, 127
8, 17731, Note_off_c, 9, 42, 64
8, 17856, Note_on_c, 9, 42, 127
8, 17919, Note_off_c, 9, 42, 64
8, 18048, Note_on_c, 9, 42, 127
8, 18101, Note_off_c, 9, 42, 64
8, 18144, Note_on_c, 9, 42, 116
8, 18184, Note_off_c, 9, 42, 64
8, 18240, Note_on_c, 9, 42, 125
8, 18303, Note_off_c, 9, 42, 64
8, 18432, Note_on_c, 9, 42, 127
8, 18485, Note_off_c, 9, 42, 64
8, 18624, Note_on_c, 9, 42, 125
8, 18664, Note_off_c, 9, 42, 64
8, 18816, Note_on_c, 9, 42, 122
8, 18865, Note_off_c, 9, 42, 64
8, 18912, Note_on_c, 9, 42, 111
8, 18961, Note_off_c, 9, 42, 64
8, 19008, Note_on_c, 9, 42, 120
8, 19070, Note_off_c, 9, 42, 64
8, 19200, Note_on_c, 9, 42, 116
8, 19262, Note_off_c, 9, 42, 64
8, 19392, Note_on_c, 9, 42, 117
8, 19460, Note_off_c, 9, 42, 64
8, 19584, Note_on_c, 9, 42, 119
8, 19651, Note_off_c, 9, 42, 64
8, 19680, Note_on_c, 9, 42, 111
8, 19738, Note_off_c, 9, 42, 64
8, 19776, Note_on_c, 9, 42, 117
8, 19843, Note_off_c, 9, 42, 64
8, 19968, Note_on_c, 9, 42, 127
8, 20031, Note_off_c, 9, 42, 64
8, 20160, Note_on_c, 9, 42, 122
8, 20227, Note_off_c, 9, 42, 64
8, 20352, Note_on_c, 9, 42, 126
8, 20414, Note_off_c, 9, 42, 64
8, 20448, Note_on_c, 9, 42, 109
8, 20501, Note_off_c, 9, 42, 64
8, 20544, Note_on_c, 9, 42, 120
8, 20611, Note_off_c, 9, 42, 64
8, 20736, Note_on_c, 9, 42, 125
8, 20803, Note_off_c, 9, 42, 64
8, 20928, Note_on_c, 9, 42, 127
8, 20995, Note_off_c, 9, 42, 64
8, 21120, Note_on_c, 9, 42, 126
8, 21183, Note_off_c, 9, 42, 64
8, 21216, Note_on_c, 9, 42, 117
8, 21270, Note_off_c, 9, 42, 64
8, 21312, Note_on_c, 9, 42, 127
8, 21380, Note_off_c, 9, 42, 64
8, 21504, Note_on_c, 9, 42, 127
8, 21566, Note_off_c, 9, 42, 64
8, 21696, Note_on_c, 9, 42, 122
8, 21763, Note_off_c, 9, 42, 64
8, 21888, Note_on_c, 9, 42, 125
8, 21942, Note_off_c, 9, 42, 64
8, 21984, Note_on_c, 9, 42, 111
8, 22029, Note_off_c, 9, 42, 64
8, 22080, Note_on_c, 9, 42, 124
8, 22139, Note_off_c, 9, 42, 64
8, 22272, Note_on_c, 9, 42, 116
8, 22335, Note_off_c, 9, 42, 64
8, 22464, Note_on_c, 9, 42, 122
8, 22532, Note_off_c, 9, 42, 64
8, 22656, Note_on_c, 9, 42, 122
8, 22710, Note_off_c, 9, 42, 64
8, 22752, Note_on_c, 9, 42, 114
8, 22801, Note_off_c, 9, 42, 64
8, 22848, Note_on_c, 9, 42, 117
8, 22910, Note_off_c, 9, 42, 64
8, 23040, Note_on_c, 9, 42, 127
8, 23103, Note_off_c, 9, 42, 64
8, 23232, Note_on_c, 9, 42, 127
8, 23295, Note_off_c, 9, 42, 64
8, 23424, Note_on_c, 9, 42, 127
8, 23478, Note_off_c, 9, 42, 64
8, 23520, Note_on_c, 9, 42, 114
8, 23569, Note_off_c, 9, 42, 64
8, 23616, Note_on_c, 9, 42, 127
8, 23688, Note_off_c, 9, 42, 64
8, 23808, Note_on_c, 9, 42, 127
8, 23875, Note_off_c, 9, 42, 64
8, 24000, Note_on_c, 9, 42, 127
8, 24063, Note_off_c, 9, 42, 64
8, 24192, Note_on_c, 9, 42, 127
8, 24245, Note_off_c, 9, 42, 64
8, 24288, Note_on_c, 9, 42, 116
8, 24328, Note_off_c, 9, 42, 64
8, 24384, Note_on_c, 9, 42, 125
8, 24447, Note_off_c, 9, 42, 64
8, 24576, Note_on_c, 9, 42, 127
8, 24629, Note_off_c, 9, 42, 64
8, 24768, Note_on_c, 9, 42, 125
8, 24808, Note_off_c, 9, 42, 64
8, 24960, Note_on_c, 9, 42, 122
8, 25009, Note_off_c, 9, 42, 64
8, 25056, Note_on_c, 9, 42, 111
8, 25105, Note_off_c, 9, 42, 64
8, 25152, Note_on_c, 9, 42, 120
8, 25214, Note_off_c, 9, 42, 64
8, 25344, Note_on_c, 9, 42, 116
8, 25406, Note_off_c, 9, 42, 64
8, 25536, Note_on_c, 9, 42, 117
8, 25604, Note_off_c, 9, 42, 64
8, 25728, Note_on_c, 9, 42, 119
8, 25795, Note_off_c, 9, 42, 64
8, 25824, Note_on_c, 9, 42, 111
8, 25882, Note_off_c, 9, 42, 64
8, 25920, Note_on_c, 9, 42, 117
8, 25987, Note_off_c, 9, 42, 64
8, 26112, Note_on_c, 9, 42, 127
8, 26175, Note_off_c, 9, 42, 64
8, 26304, Note_on_c, 9, 42, 122
8, 26371, Note_off_c, 9, 42, 64
8, 26496, Note_on_c, 9, 42, 126
8, 26558, Note_off_c, 9, 42, 64
8, 26592, Note_on_c, 9, 42, 109
8, 26645, Note_off_c, 9, 42, 64
8, 26688, Note_on_c, 9, 42, 120
8, 26755, Note_off_c, 9, 42, 64
8, 26880, Note_on_c, 9, 42, 125
8, 26947, Note_off_c, 9, 42, 64
8, 27072, Note_on_c, 9, 42, 127
8, 27139, Note_off_c, 9, 42, 64
8, 27264, Note_on_c, 9, 42, 126
8, 27327, Note_off_c, 9, 42, 64
8, 27360, Note_on_c, 9, 42, 117
8, 27414, Note_off_c, 9, 42, 64
8, 27456, Note_on_c, 9, 42, 127
8, 27524, Note_off_c, 9, 42, 64
8, 27648, Note_on_c, 9, 42, 127
8, 27710, Note_off_c, 9, 42, 64
8, 27840, Note_on_c, 9, 42, 122
8, 27907, Note_off_c, 9, 42, 64
8, 28032, Note_on_c, 9, 42, 125
8, 28086, Note_off_c, 9, 42, 64
8, 28128, Note_on_c, 9, 42, 111
8, 28173, Note_off_c, 9, 42, 64
8, 28224, Note_on_c, 9, 42, 124
8, 28283, Note_off_c, 9, 42, 64
8, 28416, Note_on_c, 9, 42, 116
8, 28479, Note_off_c, 9, 42, 64
8, 28608, Note_on_c, 9, 42, 122
8, 28676, Note_off_c, 9, 42, 64
8, 28800, Note_on_c, 9, 42, 122
8, 28854, Note_off_c, 9, 42, 64
8, 28896, Note_on_c, 9, 42, 114
8, 28945, Note_off_c, 9, 42, 64
8, 28992, Note_on_c, 9, 42, 117
8, 29054, Note_off_c, 9, 42, 64
8, 29184, Note_on_c, 9, 42, 127
8, 29247, Note_off_c, 9, 42, 64
8, 29376, Note_on_c, 9, 42, 127
8, 29439, Note_off_c, 9, 42, 64
8, 29568, Note_on_c, 9, 42, 127
8, 29622, Note_off_c, 9, 42, 64
8, 29664, Note_on_c, 9, 42, 114
8, 29713, Note_off_c, 9, 42, 64
8, 29760, Note_on_c, 9, 42, 127
8, 29832, Note_off_c, 9, 42, 64
8, 29952, Note_on_c, 9, 42, 127
8, 30019, Note_off_c, 9, 42, 64
8, 30144, Note_on_c, 9, 42, 127
8, 30207, Note_off_c, 9, 42, 64
8, 30336, Note_on_c, 9, 42, 127
8, 30389, Note_off_c, 9, 42, 64
8, 30432, Note_on_c, 9, 42, 116
8, 30472, Note_off_c, 9, 42, 64
8, 30528, Note_on_c, 9, 42, 125
8, 30591, Note_off_c, 9, 42, 64
8, 30720, Note_on_c, 9, 42, 127
8, 30773, Note_off_c, 9, 42, 64
8, 30912, Note_on_c, 9, 42, 125
8, 30952, Note_off_c, 9, 42, 64
8, 31104, Note_on_c, 9, 42, 122
8, 31153, Note_off_c, 9, 42, 64
8, 31200, Note_on_c, 9, 42, 111
8, 31249, Note_off_c, 9, 42, 64
8, 31296, Note_on_c, 9, 42, 120
8, 31358, Note_off_c, 9, 42, 64
8, 31488, Note_on_c, 9, 42, 116
8, 31550, Note_off_c, 9, 42, 64
8, 31680, Note_on_c, 9, 42, 117
8, 31748, Note_off_c, 9, 42, 64
8, 31872, Note_on_c, 9, 42, 119
8, 31939, Note_off_c, 9, 42, 64
8, 31968, Note_on_c, 9, 42, 111
8, 32026, Note_off_c, 9, 42, 64
8, 32064, Note_on_c, 9, 42, 117
8, 32131, Note_off_c, 9, 42, 64
8, 32256, Note_on_c, 9, 42, 127
8, 32319, Note_off_c, 9, 42, 64
8, 32448, Note_on_c, 9, 42, 122
8, 32515, Note_off_c, 9, 42, 64
8, 32640, Note_on_c, 9, 42, 126
8, 32702, Note_off_c, 9, 42, 64
8, 32736, Note_on_c, 9, 42, 109
8, 32789, Note_off_c, 9, 42, 64
8, 32832, Note_on_c, 9, 42, 120
8, 32899, Note_off_c, 9, 42, 64
8, 33024, Note_on_c, 9, 42, 125
8, 33091, Note_off_c, 9, 42, 64
8, 33216, Note_on_c, 9, 42, 127
8, 33283, Note_off_c, 9, 42, 64
8, 33408, Note_on_c, 9, 42, 126
8, 33471, Note_off_c, 9, 42, 64
8, 33504, Note_on_c, 9, 42, 117
8, 33558, Note_off_c, 9, 42, 64
8, 33600, Note_on_c, 9, 42, 127
8, 33668, Note_off_c, 9, 42, 64
8, 33792, Note_on_c, 9, 42, 127
8, 33854, Note_off_c, 9, 42, 64
8, 33984, Note_on_c, 9, 42, 122
8, 34051, Note_off_c, 9, 42, 64
8, 34176, Note_on_c, 9, 42, 125
8, 34230, Note_off_c, 9, 42, 64
8, 34272, Note_on_c, 9, 42, 111
8, 34317, Note_off_c, 9, 42, 64
8, 34368, Note_on_c, 9, 42, 124
8, 34427, Note_off_c, 9, 42, 64
8, 34560, Note_on_c, 9, 42, 116
8, 34623, Note_off_c, 9, 42, 64
8, 34752, Note_on_c, 9, 42, 122
8, 34820, Note_off_c, 9, 42, 64
8, 34944, Note_on_c, 9, 42, 122
8, 34998, Note_off_c, 9, 42, 64
8, 35040, Note_on_c, 9, 42, 114
8, 35089, Note_off_c, 9, 42, 64
8, 35136, Note_on_c, 9, 42, 117
8, 35198, Note_off_c, 9, 42, 64
8, 35328, Note_on_c, 9, 42, 127
8, 35391, Note_off_c, 9, 42, 64
8, 35520, Note_on_c, 9, 42, 127
8, 35583, Note_off_c, 9, 42, 64
8, 35712, Note_on_c, 9, 42, 127
8, 35766, Note_off_c, 9, 42, 64
8, 35808, Note_on_c, 9, 42, 114
8, 35857, Note_off_c, 9, 42, 64
8, 35904, Note_on_c, 9, 42, 127
8, 35976, Note_off_c, 9, 42, 64
8, 36096, Note_on_c, 9, 42, 127
8, 36163, Note_off_c, 9, 42, 64
8, 36288, Note_on_c, 9, 42, 127
8, 36351, Note_off_c, 9, 42, 64
8, 36480, Note_on_c, 9, 42, 127
8, 36537, Note_off_c, 9, 42, 64
8, 36576, Note_on_c, 9, 42, 117
8, 36617, Note_off_c, 9, 42, 64
8, 36672, Note_on_c, 9, 42, 127
8, 36723, Note_off_c, 9, 42, 64
8, 36768, Note_on_c, 9, 42, 126
8, 36819, Note_off_c, 9, 42, 64
8, 36864, Note_on_c, 9, 42, 127
8, 36925, Note_off_c, 9, 42, 64
8, 36925, End_track
9, 0, Start_track
9, 0, MIDI_port, 1
9, 0, Title_t, "Crash Cymbal        "
9, 0, Program_c, 9, 126
9, 384, Note_on_c, 9, 49, 100
9, 402, Note_off_c, 9, 49, 64
9, 6528, Note_on_c, 9, 49, 100
9, 6563, Note_off_c, 9, 49, 64
9, 12672, Note_on_c, 9, 49, 100
9, 12713, Note_off_c, 9, 49, 64
9, 18816, Note_on_c, 9, 49, 100
9, 18866, Note_off_c, 9, 49, 64
9, 24960, Note_on_c, 9, 49, 100
9, 24999, Note_off_c, 9, 49, 64
9, 31104, Note_on_c, 9, 49, 100
9, 31148, Note_off_c, 9, 49, 64
9, 36864, Note_on_c, 9, 49, 100
9, 36914, Note_off_c, 9, 49, 64
9, 36914, End_track
10, 0, Start_track
10, 0, MIDI_port, 1
10, 0, Title_t, "Piano               "
10, 0, Program_c, 1, 2
10, 384, Note_on_c, 1, 60, 117
10, 480, Note_on_c, 1, 64, 107
10, 501, Note_off_c, 1, 60, 64
10, 576, Note_on_c, 1, 67, 115
10, 633, Note_off_c, 1, 64, 64
10, 653, Note_off_c, 1, 67, 64
10, 672, Note_on_c, 1, 59, 107
10, 825, Note_off_c, 1, 59, 64
10, 864, Note_on_c, 1, 67, 105
10, 864, Note_on_c, 1, 64, 110
10, 951, Note_off_c, 1, 67, 64
10, 951, Note_off_c, 1, 64, 64
10, 1056, Note_on_c, 1, 57, 116
10, 1248, Note_on_c, 1, 67, 110
10, 1248, Note_on_c, 1, 64, 115
10, 1250, Note_off_c, 1, 57, 64
10, 1350, Note_off_c, 1, 67, 64
10, 1371, Note_off_c, 1, 64, 64
10, 1440, Note_on_c, 1, 55, 110
10, 1619, Note_off_c, 1, 55, 64
10, 1632, Note_on_c, 1, 67, 107
10, 1632, Note_on_c, 1, 64, 112
10, 1683, Note_off_c, 1, 67, 64
10, 1714, Note_off_c, 1, 64, 64
10, 1728, Note_on_c, 1, 55, 99
10, 1846, Note_off_c, 1, 55, 64
10, 1920, Note_on_c, 1, 60, 117
10, 2016, Note_on_c, 1, 64, 114
10, 2017, Note_off_c, 1, 60, 64
10, 2112, Note_on_c, 1, 67, 110
10, 2149, Note_off_c, 1, 64, 64
10, 2179, Note_off_c, 1, 67, 64
10, 2208, Note_on_c, 1, 59, 104
10, 2351, Note_off_c, 1, 59, 64
10, 2400, Note_on_c, 1, 67, 110
10, 2400, Note_on_c, 1, 64, 112
10, 2456, Note_off_c, 1, 67, 64
10, 2467, Note_off_c, 1, 64, 64
10, 2496, Note_on_c, 1, 57, 96
10, 2592, Note_on_c, 1, 64, 106
10, 2592, Note_on_c, 1, 67, 65
10, 2593, Note_off_c, 1, 57, 64
10, 2633, Note_off_c, 1, 67, 64
10, 2649, Note_off_c, 1, 64, 64
10, 2688, Note_on_c, 1, 55, 99
10, 2784, Note_on_c, 1, 59, 110
10, 2811, Note_off_c, 1, 55, 64
10, 2876, Note_off_c, 1, 59, 64
10, 2880, Note_on_c, 1, 62, 105
10, 2973, Note_off_c, 1, 62, 64
10, 2976, Note_on_c, 1, 59, 117
10, 3099, Note_off_c, 1, 59, 64
10, 3168, Note_on_c, 1, 67, 117
10, 3168, Note_on_c, 1, 62, 117
10, 3265, Note_off_c, 1, 67, 64
10, 3265, Note_off_c, 1, 62, 64
10, 3360, Note_on_c, 1, 55, 117
10, 3534, Note_off_c, 1, 55, 64
10, 3552, Note_on_c, 1, 59, 106
10, 3639, Note_off_c, 1, 59, 64
10, 3648, Note_on_c, 1, 62, 106
10, 3730, Note_off_c, 1, 62, 64
10, 3744, Note_on_c, 1, 59, 117
10, 3862, Note_off_c, 1, 59, 64
10, 3936, Note_on_c, 1, 67, 114
10, 3936, Note_on_c, 1, 62, 117
10, 4028, Note_off_c, 1, 62, 64
10, 4033, Note_off_c, 1, 67, 64
10, 4128, Note_on_c, 1, 55, 117
10, 4312, Note_off_c, 1, 55, 64
10, 4320, Note_on_c, 1, 59, 115
10, 4397, Note_off_c, 1, 59, 64
10, 4416, Note_on_c, 1, 62, 116
10, 4498, Note_off_c, 1, 62, 64
10, 4512, Note_on_c, 1, 59, 107
10, 4635, Note_off_c, 1, 59, 64
10, 4704, Note_on_c, 1, 67, 110
10, 4704, Note_on_c, 1, 62, 117
10, 4755, Note_off_c, 1, 67, 64
10, 4786, Note_off_c, 1, 62, 64
10, 4896, Note_on_c, 1, 55, 117
10, 5088, Note_on_c, 1, 59, 116
10, 5112, Note_off_c, 1, 55, 64
10, 5175, Note_off_c, 1, 59, 64
10, 5184, Note_on_c, 1, 62, 117
10, 5260, Note_off_c, 1, 62, 64
10, 5280, Note_on_c, 1, 59, 117
10, 5408, Note_off_c, 1, 59, 64
10, 5472, Note_on_c, 1, 67, 106
10, 5472, Note_on_c, 1, 62, 106
10, 5534, Note_off_c, 1, 67, 64
10, 5568, Note_on_c, 1, 55, 107
10, 5600, Note_off_c, 1, 62, 64
10, 5634, Note_off_c, 1, 55, 64
10, 5664, Note_on_c, 1, 62, 105
10, 5751, Note_off_c, 1, 62, 64
10, 5760, Note_on_c, 1, 60, 117
10, 5837, Note_off_c, 1, 60, 64
10, 5856, Note_on_c, 1, 64, 110
10, 5952, Note_on_c, 1, 67, 115
10, 6030, Note_off_c, 1, 64, 64
10, 6034, Note_off_c, 1, 67, 64
10, 6048, Note_on_c, 1, 59, 116
10, 6166, Note_off_c, 1, 59, 64
10, 6240, Note_on_c, 1, 67, 115
10, 6240, Note_on_c, 1, 64, 107
10, 6302, Note_off_c, 1, 67, 64
10, 6332, Note_off_c, 1, 64, 64
10, 6432, Note_on_c, 1, 57, 117
10, 6624, Note_on_c, 1, 67, 115
10, 6624, Note_on_c, 1, 64, 116
10, 6626, Note_off_c, 1, 57, 64
10, 6686, Note_off_c, 1, 67, 64
10, 6701, Note_off_c, 1, 64, 64
10, 6816, Note_on_c, 1, 55, 116
10, 6980, Note_off_c, 1, 55, 64
10, 7008, Note_on_c, 1, 67, 106
10, 7008, Note_on_c, 1, 64, 106
10, 7064, Note_off_c, 1, 67, 64
10, 7065, Note_off_c, 1, 64, 64
10, 7104, Note_on_c, 1, 55, 76
10, 7176, Note_off_c, 1, 55, 64
10, 7200, Note_on_c, 1, 64, 107
10, 7200, Note_on_c, 1, 67, 65
10, 7251, Note_off_c, 1, 67, 64
10, 7282, Note_off_c, 1, 64, 64
10, 7296, Note_on_c, 1, 60, 117
10, 7392, Note_on_c, 1, 64, 107
10, 7419, Note_off_c, 1, 60, 64
10, 7488, Note_on_c, 1, 67, 110
10, 7556, Note_off_c, 1, 64, 64
10, 7559, Note_off_c, 1, 67, 64
10, 7584, Note_on_c, 1, 59, 116
10, 7712, Note_off_c, 1, 59, 64
10, 7776, Note_on_c, 1, 67, 115
10, 7776, Note_on_c, 1, 64, 117
10, 7838, Note_off_c, 1, 67, 64
10, 7858, Note_off_c, 1, 64, 64
10, 7968, Note_on_c, 1, 57, 117
10, 8137, Note_off_c, 1, 57, 64
10, 8160, Note_on_c, 1, 67, 116
10, 8160, Note_on_c, 1, 64, 116
10, 8217, Note_off_c, 1, 67, 64
10, 8242, Note_off_c, 1, 64, 64
10, 8352, Note_on_c, 1, 67, 94
10, 8352, Note_on_c, 1, 64, 111
10, 8418, Note_off_c, 1, 67, 64
10, 8424, Note_on_c, 1, 55, 106
10, 8429, Note_off_c, 1, 64, 64
10, 8598, Note_off_c, 1, 55, 64
10, 8640, Note_on_c, 1, 64, 116
10, 8640, Note_on_c, 1, 67, 117
10, 8712, Note_off_c, 1, 67, 64
10, 8733, Note_off_c, 1, 64, 64
10, 8832, Note_on_c, 1, 59, 116
10, 8928, Note_on_c, 1, 62, 117
10, 9001, Note_off_c, 1, 59, 64
10, 9024, Note_on_c, 1, 67, 117
10, 9090, Note_off_c, 1, 67, 64
10, 9120, Note_on_c, 1, 57, 115
10, 9153, Note_off_c, 1, 62, 64
10, 9238, Note_off_c, 1, 57, 64
10, 9312, Note_on_c, 1, 62, 114
10, 9312, Note_on_c, 1, 67, 112
10, 9312, Note_on_c, 1, 55, 105
10, 9378, Note_off_c, 1, 67, 64
10, 9388, Note_off_c, 1, 55, 64
10, 9399, Note_off_c, 1, 62, 64
10, 9504, Note_on_c, 1, 59, 117
10, 9688, Note_off_c, 1, 59, 64
10, 9696, Note_on_c, 1, 67, 117
10, 9696, Note_on_c, 1, 62, 117
10, 9793, Note_off_c, 1, 67, 64
10, 9808, Note_off_c, 1, 62, 64
10, 9888, Note_on_c, 1, 67, 110
10, 9888, Note_on_c, 1, 62, 115
10, 9970, Note_off_c, 1, 67, 64
10, 9984, Note_on_c, 1, 55, 99
10, 10001, Note_off_c, 1, 62, 64
10, 10138, Note_off_c, 1, 55, 64
10, 10176, Note_on_c, 1, 67, 111
10, 10176, Note_on_c, 1, 62, 115
10, 10242, Note_off_c, 1, 67, 64
10, 10258, Note_off_c, 1, 62, 64
10, 10272, Note_on_c, 1, 59, 115
10, 10456, Note_off_c, 1, 59, 64
10, 10464, Note_on_c, 1, 67, 115
10, 10464, Note_on_c, 1, 62, 116
10, 10530, Note_off_c, 1, 67, 64
10, 10556, Note_off_c, 1, 62, 64
10, 10656, Note_on_c, 1, 55, 112
10, 10774, Note_off_c, 1, 55, 64
10, 10848, Note_on_c, 1, 67, 110
10, 10848, Note_on_c, 1, 62, 107
10, 10919, Note_off_c, 1, 67, 64
10, 10935, Note_off_c, 1, 62, 64
10, 11040, Note_on_c, 1, 62, 117
10, 11040, Note_on_c, 1, 67, 97
10, 11107, Note_off_c, 1, 67, 64
10, 11132, Note_off_c, 1, 62, 64
10, 11136, Note_on_c, 1, 59, 114
10, 11232, Note_on_c, 1, 62, 115
10, 11259, Note_off_c, 1, 59, 64
10, 11328, Note_on_c, 1, 67, 115
10, 11375, Note_off_c, 1, 62, 64
10, 11394, Note_off_c, 1, 67, 64
10, 11424, Note_on_c, 1, 57, 116
10, 11527, Note_off_c, 1, 57, 64
10, 11616, Note_on_c, 1, 67, 107
10, 11616, Note_on_c, 1, 55, 110
10, 11682, Note_off_c, 1, 55, 64
10, 11709, Note_off_c, 1, 67, 64
10, 11808, Note_on_c, 1, 60, 117
10, 11997, Note_off_c, 1, 60, 64
10, 12000, Note_on_c, 1, 67, 114
10, 12000, Note_on_c, 1, 64, 112
10, 12061, Note_off_c, 1, 67, 64
10, 12061, Note_off_c, 1, 64, 64
10, 12192, Note_on_c, 1, 64, 117
10, 12192, Note_on_c, 1, 67, 116
10, 12269, Note_off_c, 1, 64, 64
10, 12269, Note_off_c, 1, 67, 64
10, 12288, Note_on_c, 1, 55, 106
10, 12396, Note_off_c, 1, 55, 64
10, 12480, Note_on_c, 1, 67, 117
10, 12480, Note_on_c, 1, 64, 116
10, 12546, Note_off_c, 1, 67, 64
10, 12572, Note_off_c, 1, 64, 64
10, 12672, Note_on_c, 1, 60, 117
10, 12841, Note_off_c, 1, 60, 64
10, 12960, Note_on_c, 1, 67, 92
10, 12960, Note_on_c, 1, 64, 117
10, 13052, Note_off_c, 1, 67, 64
10, 13062, Note_off_c, 1, 64, 64
10, 13152, Note_on_c, 1, 55, 115
10, 13249, Note_off_c, 1, 55, 64
10, 13344, Note_on_c, 1, 60, 117
10, 13518, Note_off_c, 1, 60, 64
10, 13536, Note_on_c, 1, 64, 109
10, 13536, Note_on_c, 1, 67, 117
10, 13602, Note_off_c, 1, 67, 64
10, 13617, Note_off_c, 1, 64, 64
10, 13728, Note_on_c, 1, 55, 117
10, 13841, Note_off_c, 1, 55, 64
10, 13920, Note_on_c, 1, 64, 116
10, 13920, Note_on_c, 1, 67, 117
10, 13981, Note_off_c, 1, 67, 64
10, 13997, Note_off_c, 1, 64, 64
10, 14112, Note_on_c, 1, 60, 117
10, 14297, Note_off_c, 1, 60, 64
10, 14304, Note_on_c, 1, 67, 116
10, 14304, Note_on_c, 1, 64, 117
10, 14355, Note_off_c, 1, 67, 64
10, 14381, Note_off_c, 1, 64, 64
10, 14496, Note_on_c, 1, 55, 115
10, 14599, Note_off_c, 1, 55, 64
10, 14688, Note_on_c, 1, 67, 110
10, 14688, Note_on_c, 1, 64, 107
10, 14744, Note_off_c, 1, 67, 64
10, 14764, Note_off_c, 1, 64, 64
10, 14880, Note_on_c, 1, 67, 117
10, 14880, Note_on_c, 1, 62, 117
10, 14916, Note_off_c, 1, 62, 64
10, 14937, Note_off_c, 1, 67, 64
10, 14976, Note_on_c, 1, 59, 116
10, 15155, Note_off_c, 1, 59, 64
10, 15168, Note_on_c, 1, 67, 114
10, 15168, Note_on_c, 1, 62, 115
10, 15219, Note_off_c, 1, 67, 64
10, 15235, Note_off_c, 1, 62, 64
10, 15264, Note_on_c, 1, 55, 107
10, 15362, Note_off_c, 1, 55, 64
10, 15456, Note_on_c, 1, 67, 117
10, 15456, Note_on_c, 1, 62, 117
10, 15512, Note_off_c, 1, 67, 64
10, 15527, Note_off_c, 1, 62, 64
10, 15648, Note_on_c, 1, 59, 117
10, 15827, Note_off_c, 1, 59, 64
10, 15840, Note_on_c, 1, 67, 117
10, 15840, Note_on_c, 1, 62, 117
10, 15907, Note_off_c, 1, 67, 64
10, 15912, Note_off_c, 1, 62, 64
10, 16032, Note_on_c, 1, 55, 117
10, 16119, Note_off_c, 1, 55, 64
10, 16224, Note_on_c, 1, 67, 112
10, 16224, Note_on_c, 1, 62, 117
10, 16280, Note_off_c, 1, 67, 64
10, 16295, Note_off_c, 1, 62, 64
10, 16416, Note_on_c, 1, 67, 110
10, 16416, Note_on_c, 1, 62, 105
10, 16498, Note_off_c, 1, 67, 64
10, 16512, Note_on_c, 1, 59, 116
10, 16513, Note_off_c, 1, 62, 64
10, 16681, Note_off_c, 1, 59, 64
10, 16704, Note_on_c, 1, 67, 115
10, 16704, Note_on_c, 1, 62, 117
10, 16781, Note_off_c, 1, 62, 64
10, 16791, Note_off_c, 1, 67, 64
10, 16800, Note_on_c, 1, 55, 107
10, 16892, Note_off_c, 1, 55, 64
10, 16992, Note_on_c, 1, 67, 111
10, 16992, Note_on_c, 1, 62, 116
10, 17064, Note_off_c, 1, 67, 64
10, 17069, Note_off_c, 1, 62, 64
10, 17184, Note_on_c, 1, 59, 117
10, 17353, Note_off_c, 1, 59, 64
10, 17376, Note_on_c, 1, 67, 117
10, 17376, Note_on_c, 1, 62, 117
10, 17427, Note_off_c, 1, 67, 64
10, 17448, Note_off_c, 1, 62, 64
10, 17568, Note_on_c, 1, 55, 114
10, 17660, Note_off_c, 1, 55, 64
10, 17760, Note_on_c, 1, 62, 115
10, 17760, Note_on_c, 1, 67, 105
10, 17816, Note_off_c, 1, 67, 64
10, 17862, Note_off_c, 1, 62, 64
10, 17952, Note_on_c, 1, 62, 111
10, 17952, Note_on_c, 1, 67, 99
10, 17998, Note_off_c, 1, 67, 64
10, 18044, Note_off_c, 1, 62, 64
10, 18048, Note_on_c, 1, 60, 117
10, 18144, Note_on_c, 1, 64, 112
10, 18145, Note_off_c, 1, 60, 64
10, 18240, Note_on_c, 1, 67, 116
10, 18241, Note_off_c, 1, 64, 64
10, 18317, Note_off_c, 1, 67, 64
10, 18336, Note_on_c, 1, 55, 112
10, 18423, Note_off_c, 1, 55, 64
10, 18528, Note_on_c, 1, 67, 117
10, 18528, Note_on_c, 1, 55, 117
10, 18584, Note_off_c, 1, 67, 64
10, 18584, Note_off_c, 1, 55, 64
10, 18816, Note_on_c, 1, 60, 117
10, 18912, Note_on_c, 1, 67, 117
10, 18912, Note_on_c, 1, 64, 117
10, 18918, Note_off_c, 1, 60, 64
10, 18958, Note_off_c, 1, 67, 64
10, 18994, Note_off_c, 1, 64, 64
10, 19104, Note_on_c, 1, 59, 117
10, 19232, Note_off_c, 1, 59, 64
10, 19296, Note_on_c, 1, 67, 114
10, 19296, Note_on_c, 1, 64, 116
10, 19347, Note_off_c, 1, 67, 64
10, 19368, Note_off_c, 1, 64, 64
10, 19488, Note_on_c, 1, 64, 117
10, 19488, Note_on_c, 1, 67, 112
10, 19544, Note_off_c, 1, 67, 64
10, 19559, Note_off_c, 1, 64, 64
10, 19584, Note_on_c, 1, 57, 99
10, 19680, Note_on_c, 1, 67, 115
10, 19680, Note_on_c, 1, 64, 117
10, 19691, Note_off_c, 1, 57, 64
10, 19737, Note_off_c, 1, 67, 64
10, 19772, Note_off_c, 1, 64, 64
10, 19872, Note_on_c, 1, 55, 104
10, 20041, Note_off_c, 1, 55, 64
10, 20064, Note_on_c, 1, 67, 111
10, 20064, Note_on_c, 1, 64, 116
10, 20151, Note_off_c, 1, 67, 64
10, 20151, Note_off_c, 1, 64, 64
10, 20256, Note_on_c, 1, 67, 107
10, 20256, Note_on_c, 1, 64, 112
10, 20313, Note_off_c, 1, 67, 64
10, 20333, Note_off_c, 1, 64, 64
10, 20352, Note_on_c, 1, 60, 117
10, 20541, Note_off_c, 1, 60, 64
10, 20544, Note_on_c, 1, 67, 109
10, 20544, Note_on_c, 1, 64, 111
10, 20600, Note_off_c, 1, 67, 64
10, 20621, Note_off_c, 1, 64, 64
10, 20640, Note_on_c, 1, 59, 117
10, 20727, Note_off_c, 1, 59, 64
10, 20832, Note_on_c, 1, 67, 111
10, 20832, Note_on_c, 1, 64, 115
10, 20832, Note_on_c, 1, 57, 105
10, 20893, Note_off_c, 1, 67, 64
10, 20909, Note_off_c, 1, 64, 64
10, 20919, Note_off_c, 1, 57, 64
10, 21024, Note_on_c, 1, 55, 110
10, 21216, Note_on_c, 1, 67, 112
10, 21216, Note_on_c, 1, 62, 117
10, 21224, Note_off_c, 1, 55, 64
10, 21288, Note_off_c, 1, 67, 64
10, 21313, Note_off_c, 1, 62, 64
10, 21408, Note_on_c, 1, 59, 110
10, 21536, Note_off_c, 1, 59, 64
10, 21600, Note_on_c, 1, 67, 116
10, 21600, Note_on_c, 1, 62, 117
10, 21677, Note_off_c, 1, 67, 64
10, 21687, Note_off_c, 1, 62, 64
10, 21792, Note_on_c, 1, 67, 109
10, 21792, Note_on_c, 1, 62, 117
10, 21863, Note_off_c, 1, 67, 64
10, 21888, Note_on_c, 1, 55, 106
10, 21930, Note_off_c, 1, 62, 64
10, 22072, Note_off_c, 1, 55, 64
10, 22080, Note_on_c, 1, 62, 114
10, 22080, Note_on_c, 1, 67, 115
10, 22146, Note_off_c, 1, 67, 64
10, 22156, Note_off_c, 1, 62, 64
10, 22176, Note_on_c, 1, 59, 117
10, 22283, Note_off_c, 1, 59, 64
10, 22368, Note_on_c, 1, 67, 117
10, 22368, Note_on_c, 1, 62, 117
10, 22419, Note_off_c, 1, 67, 64
10, 22435, Note_off_c, 1, 62, 64
10, 22560, Note_on_c, 1, 62, 112
10, 22560, Note_on_c, 1, 67, 116
10, 22617, Note_off_c, 1, 67, 64
10, 22627, Note_off_c, 1, 62, 64
10, 22656, Note_on_c, 1, 55, 114
10, 22815, Note_off_c, 1, 55, 64
10, 22848, Note_on_c, 1, 67, 117
10, 22848, Note_on_c, 1, 62, 117
10, 22925, Note_off_c, 1, 67, 64
10, 22925, Note_off_c, 1, 62, 64
10, 22944, Note_on_c, 1, 59, 116
10, 23046, Note_off_c, 1, 59, 64
10, 23136, Note_on_c, 1, 67, 117
10, 23136, Note_on_c, 1, 62, 117
10, 23198, Note_off_c, 1, 67, 64
10, 23208, Note_off_c, 1, 62, 64
10, 23328, Note_on_c, 1, 67, 105
10, 23328, Note_on_c, 1, 62, 109
10, 23410, Note_off_c, 1, 67, 64
10, 23410, Note_off_c, 1, 62, 64
10, 23424, Note_on_c, 1, 55, 107
10, 23568, Note_off_c, 1, 55, 64
10, 23616, Note_on_c, 1, 67, 117
10, 23616, Note_on_c, 1, 62, 117
10, 23672, Note_off_c, 1, 67, 64
10, 23703, Note_off_c, 1, 62, 64
10, 23712, Note_on_c, 1, 59, 107
10, 23784, Note_off_c, 1, 59, 64
10, 23904, Note_on_c, 1, 67, 115
10, 23904, Note_on_c, 1, 62, 117
10, 23971, Note_off_c, 1, 67, 64
10, 23986, Note_off_c, 1, 62, 64
10, 24096, Note_on_c, 1, 55, 104
10, 24173, Note_off_c, 1, 55, 64
10, 24192, Note_on_c, 1, 60, 117
10, 24279, Note_off_c, 1, 60, 64
10, 24288, Note_on_c, 1, 64, 114
10, 24384, Note_on_c, 1, 67, 117
10, 24411, Note_off_c, 1, 64, 64
10, 24450, Note_off_c, 1, 67, 64
10, 24480, Note_on_c, 1, 59, 112
10, 24582, Note_off_c, 1, 59, 64
10, 24672, Note_on_c, 1, 64, 115
10, 24672, Note_on_c, 1, 67, 117
10, 24744, Note_off_c, 1, 67, 64
10, 24764, Note_off_c, 1, 64, 64
10, 24768, Note_on_c, 1, 57, 112
10, 24850, Note_off_c, 1, 57, 64
10, 24864, Note_on_c, 1, 67, 112
10, 24864, Note_on_c, 1, 64, 117
10, 24946, Note_off_c, 1, 67, 64
10, 24946, Note_off_c, 1, 64, 64
10, 24960, Note_on_c, 1, 60, 117
10, 25119, Note_off_c, 1, 60, 64
10, 25152, Note_on_c, 1, 67, 96
10, 25152, Note_on_c, 1, 64, 105
10, 25209, Note_off_c, 1, 67, 64
10, 25224, Note_off_c, 1, 64, 64
10, 25248, Note_on_c, 1, 59, 116
10, 25411, Note_off_c, 1, 59, 64
10, 25440, Note_on_c, 1, 67, 110
10, 25440, Note_on_c, 1, 64, 117
10, 25486, Note_off_c, 1, 67, 64
10, 25502, Note_off_c, 1, 64, 64
10, 25632, Note_on_c, 1, 57, 117
10, 25824, Note_on_c, 1, 67, 115
10, 25824, Note_on_c, 1, 64, 117
10, 25827, Note_off_c, 1, 57, 64
10, 25906, Note_off_c, 1, 67, 64
10, 25912, Note_off_c, 1, 64, 64
10, 26016, Note_on_c, 1, 67, 115
10, 26016, Note_on_c, 1, 64, 117
10, 26108, Note_off_c, 1, 67, 64
10, 26112, Note_on_c, 1, 55, 106
10, 26113, Note_off_c, 1, 64, 64
10, 26219, Note_off_c, 1, 55, 64
10, 26304, Note_on_c, 1, 67, 114
10, 26304, Note_on_c, 1, 64, 115
10, 26371, Note_off_c, 1, 64, 64
10, 26376, Note_off_c, 1, 67, 64
10, 26496, Note_on_c, 1, 60, 117
10, 26685, Note_off_c, 1, 60, 64
10, 26688, Note_on_c, 1, 67, 111
10, 26688, Note_on_c, 1, 64, 115
10, 26739, Note_off_c, 1, 67, 64
10, 26754, Note_off_c, 1, 64, 64
10, 26784, Note_on_c, 1, 59, 112
10, 26902, Note_off_c, 1, 59, 64
10, 26976, Note_on_c, 1, 67, 110
10, 26976, Note_on_c, 1, 64, 112
10, 27038, Note_off_c, 1, 67, 64
10, 27058, Note_off_c, 1, 64, 64
10, 27072, Note_on_c, 1, 57, 105
10, 27154, Note_off_c, 1, 57, 64
10, 27264, Note_on_c, 1, 55, 104
10, 27360, Note_on_c, 1, 67, 115
10, 27360, Note_on_c, 1, 62, 117
10, 27366, Note_off_c, 1, 55, 64
10, 27457, Note_off_c, 1, 67, 64
10, 27467, Note_off_c, 1, 62, 64
10, 27552, Note_on_c, 1, 67, 107
10, 27552, Note_on_c, 1, 62, 105
10, 27614, Note_off_c, 1, 67, 64
10, 27648, Note_on_c, 1, 59, 116
10, 27660, Note_off_c, 1, 62, 64
10, 27746, Note_off_c, 1, 59, 64
10, 27840, Note_on_c, 1, 67, 117
10, 27840, Note_on_c, 1, 62, 117
10, 27927, Note_off_c, 1, 67, 64
10, 27932, Note_off_c, 1, 62, 64
10, 28032, Note_on_c, 1, 55, 116
10, 28201, Note_off_c, 1, 55, 64
10, 28224, Note_on_c, 1, 67, 115
10, 28224, Note_on_c, 1, 62, 117
10, 28311, Note_off_c, 1, 67, 64
10, 28311, Note_off_c, 1, 62, 64
10, 28320, Note_on_c, 1, 59, 99
10, 28320, Note_on_c, 1, 57, 107
10, 28351, Note_off_c, 1, 59, 64
10, 28423, Note_off_c, 1, 57, 64
10, 28512, Note_on_c, 1, 67, 117
10, 28512, Note_on_c, 1, 62, 117
10, 28583, Note_off_c, 1, 67, 64
10, 28593, Note_off_c, 1, 62, 64
10, 28704, Note_on_c, 1, 59, 117
10, 28894, Note_off_c, 1, 59, 64
10, 28896, Note_on_c, 1, 67, 115
10, 28896, Note_on_c, 1, 62, 117
10, 28968, Note_off_c, 1, 67, 64
10, 28983, Note_off_c, 1, 62, 64
10, 29088, Note_on_c, 1, 55, 112
10, 29196, Note_off_c, 1, 55, 64
10, 29232, Note_on_c, 1, 67, 101
10, 29280, Note_on_c, 1, 62, 110
10, 29309, Note_off_c, 1, 67, 64
10, 29377, Note_off_c, 1, 62, 64
10, 29424, Note_on_c, 1, 57, 115
10, 29511, Note_off_c, 1, 57, 64
10, 29568, Note_on_c, 1, 59, 117
10, 29753, Note_off_c, 1, 59, 64
10, 29760, Note_on_c, 1, 67, 112
10, 29760, Note_on_c, 1, 62, 117
10, 29836, Note_off_c, 1, 67, 64
10, 29836, Note_off_c, 1, 62, 64
10, 29856, Note_on_c, 1, 55, 115
10, 29959, Note_off_c, 1, 55, 64
10, 30048, Note_on_c, 1, 67, 117
10, 30048, Note_on_c, 1, 62, 117
10, 30140, Note_off_c, 1, 67, 64
10, 30140, Note_off_c, 1, 62, 64
10, 30240, Note_on_c, 1, 59, 112
10, 30327, Note_off_c, 1, 59, 64
10, 30336, Note_on_c, 1, 60, 117
10, 30428, Note_off_c, 1, 60, 64
10, 30432, Note_on_c, 1, 64, 97
10, 30528, Note_on_c, 1, 67, 117
10, 30545, Note_off_c, 1, 64, 64
10, 30600, Note_off_c, 1, 67, 64
10, 30624, Note_on_c, 1, 59, 117
10, 30721, Note_off_c, 1, 59, 64
10, 30816, Note_on_c, 1, 67, 115
10, 30816, Note_on_c, 1, 64, 117
10, 30882, Note_off_c, 1, 67, 64
10, 30903, Note_off_c, 1, 64, 64
10, 31008, Note_on_c, 1, 57, 117
10, 31200, Note_on_c, 1, 67, 115
10, 31200, Note_on_c, 1, 64, 112
10, 31203, Note_off_c, 1, 57, 64
10, 31261, Note_off_c, 1, 67, 64
10, 31282, Note_off_c, 1, 64, 64
10, 31392, Note_on_c, 1, 55, 112
10, 31515, Note_off_c, 1, 55, 64
10, 31584, Note_on_c, 1, 67, 107
10, 31584, Note_on_c, 1, 64, 107
10, 31645, Note_off_c, 1, 67, 64
10, 31666, Note_off_c, 1, 64, 64
10, 31776, Note_on_c, 1, 67, 106
10, 31776, Note_on_c, 1, 64, 107
10, 31853, Note_off_c, 1, 67, 64
10, 31863, Note_off_c, 1, 64, 64
10, 31872, Note_on_c, 1, 60, 117
10, 32057, Note_off_c, 1, 60, 64
10, 32064, Note_on_c, 1, 67, 110
10, 32064, Note_on_c, 1, 64, 116
10, 32110, Note_off_c, 1, 67, 64
10, 32146, Note_off_c, 1, 64, 64
10, 32160, Note_on_c, 1, 59, 117
10, 32242, Note_off_c, 1, 59, 64
10, 32352, Note_on_c, 1, 67, 101
10, 32352, Note_on_c, 1, 64, 114
10, 32403, Note_off_c, 1, 67, 64
10, 32439, Note_off_c, 1, 64, 64
10, 32448, Note_on_c, 1, 57, 111
10, 32540, Note_off_c, 1, 57, 64
10, 32640, Note_on_c, 1, 55, 117
10, 32814, Note_off_c, 1, 55, 64
10, 32832, Note_on_c, 1, 67, 115
10, 32832, Note_on_c, 1, 64, 112
10, 32888, Note_off_c, 1, 67, 64
10, 32909, Note_off_c, 1, 64, 64
10, 32928, Note_on_c, 1, 60, 117
10, 33051, Note_off_c, 1, 60, 64
10, 33120, Note_on_c, 1, 67, 107
10, 33120, Note_on_c, 1, 64, 105
10, 33197, Note_off_c, 1, 67, 64
10, 33197, Note_off_c, 1, 64, 64
10, 33216, Note_on_c, 1, 55, 94
10, 33293, Note_off_c, 1, 55, 64
10, 33312, Note_on_c, 1, 64, 112
10, 33312, Note_on_c, 1, 67, 95
10, 33363, Note_off_c, 1, 67, 64
10, 33384, Note_off_c, 1, 64, 64
10, 33408, Note_on_c, 1, 59, 117
10, 33577, Note_off_c, 1, 59, 64
10, 33600, Note_on_c, 1, 67, 112
10, 33600, Note_on_c, 1, 62, 115
10, 33692, Note_off_c, 1, 62, 64
10, 33696, Note_on_c, 1, 55, 106
10, 33697, Note_off_c, 1, 67, 64
10, 33793, Note_off_c, 1, 55, 64
10, 33888, Note_on_c, 1, 67, 107
10, 33888, Note_on_c, 1, 62, 115
10, 33970, Note_off_c, 1, 67, 64
10, 33975, Note_off_c, 1, 62, 64
10, 34080, Note_on_c, 1, 67, 106
10, 34080, Note_on_c, 1, 62, 116
10, 34142, Note_off_c, 1, 67, 64
10, 34157, Note_off_c, 1, 62, 64
10, 34176, Note_on_c, 1, 59, 117
10, 34272, Note_on_c, 1, 62, 117
10, 34288, Note_off_c, 1, 59, 64
10, 34368, Note_on_c, 1, 67, 115
10, 34435, Note_off_c, 1, 67, 64
10, 34446, Note_off_c, 1, 62, 64
10, 34464, Note_on_c, 1, 57, 117
10, 34560, Note_on_c, 1, 67, 65
10, 34561, Note_off_c, 1, 67, 64
10, 34567, Note_off_c, 1, 57, 64
10, 34656, Note_on_c, 1, 67, 117
10, 34656, Note_on_c, 1, 55, 110
10, 34723, Note_off_c, 1, 67, 64
10, 34728, Note_off_c, 1, 55, 64
10, 34848, Note_on_c, 1, 59, 117
10, 35040, Note_on_c, 1, 62, 112
10, 35052, Note_off_c, 1, 59, 64
10, 35136, Note_on_c, 1, 67, 115
10, 35173, Note_off_c, 1, 62, 64
10, 35198, Note_off_c, 1, 67, 64
10, 35232, Note_on_c, 1, 57, 112
10, 35314, Note_off_c, 1, 57, 64
10, 35424, Note_on_c, 1, 67, 111
10, 35424, Note_on_c, 1, 55, 83
10, 35501, Note_off_c, 1, 67, 64
10, 35521, Note_off_c, 1, 55, 64
10, 35616, Note_on_c, 1, 59, 117
10, 35808, Note_on_c, 1, 62, 117
10, 35831, Note_off_c, 1, 59, 64
10, 35904, Note_on_c, 1, 67, 115
10, 35921, Note_off_c, 1, 62, 64
10, 35975, Note_off_c, 1, 67, 64
10, 36000, Note_on_c, 1, 57, 110
10, 36097, Note_off_c, 1, 57, 64
10, 36192, Note_on_c, 1, 67, 104
10, 36192, Note_on_c, 1, 62, 107
10, 36264, Note_off_c, 1, 67, 64
10, 36288, Note_on_c, 1, 55, 104
10, 36289, Note_off_c, 1, 62, 64
10, 36349, Note_off_c, 1, 55, 64
10, 36384, Note_on_c, 1, 67, 107
10, 36384, Note_on_c, 1, 62, 117
10, 36425, Note_off_c, 1, 67, 64
10, 36466, Note_off_c, 1, 62, 64
10, 36480, Note_on_c, 1, 60, 117
10, 36557, Note_off_c, 1, 60, 64
10, 36672, Note_on_c, 1, 64, 117
10, 36672, Note_on_c, 1, 67, 117
10, 36744, Note_off_c, 1, 64, 64
10, 36744, Note_off_c, 1, 67, 64
10, 36768, Note_on_c, 1, 64, 116
10, 36768, Note_on_c, 1, 67, 117
10, 36834, Note_off_c, 1, 64, 64
10, 36839, Note_off_c, 1, 67, 64
10, 36864, Note_on_c, 1, 64, 117
10, 36864, Note_on_c, 1, 67, 117
10, 36956, Note_off_c, 1, 64, 64
10, 36956, Note_off_c, 1, 67, 64
10, 36956, End_track
11, 0, Start_track
11, 0, MIDI_port, 1
11, 0, Title_t, "Bass                "
11, 0, Program_c, 2, 64
11, 384, Note_on_c, 2, 36, 127
11, 672, Note_on_c, 2, 43, 127
11, 676, Note_off_c, 2, 36, 64
11, 960, Note_on_c, 2, 48, 127
11, 969, Note_off_c, 2, 43, 64
11, 1231, Note_off_c, 2, 48, 64
11, 1248, Note_on_c, 2, 43, 127
11, 1520, Note_off_c, 2, 43, 64
11, 1536, Note_on_c, 2, 36, 106
11, 1695, Note_off_c, 2, 36, 64
11, 1728, Note_on_c, 2, 43, 127
11, 1902, Note_off_c, 2, 43, 64
11, 1920, Note_on_c, 2, 36, 126
11, 2206, Note_off_c, 2, 36, 64
11, 2208, Note_on_c, 2, 43, 127
11, 2494, Note_off_c, 2, 43, 64
11, 2496, Note_on_c, 2, 40, 127
11, 2686, Note_off_c, 2, 40, 64
11, 2688, Note_on_c, 2, 43, 127
11, 2960, Note_off_c, 2, 43, 64
11, 2976, Note_on_c, 2, 38, 127
11, 3257, Note_off_c, 2, 38, 64
11, 3264, Note_on_c, 2, 50, 127
11, 3443, Note_off_c, 2, 50, 64
11, 3456, Note_on_c, 2, 43, 127
11, 3744, Note_on_c, 2, 38, 127
11, 3758, Note_off_c, 2, 43, 64
11, 3990, Note_off_c, 2, 38, 64
11, 4032, Note_on_c, 2, 43, 127
11, 4273, Note_off_c, 2, 43, 64
11, 4320, Note_on_c, 2, 43, 126
11, 4608, Note_on_c, 2, 38, 127
11, 4612, Note_off_c, 2, 43, 64
11, 4797, Note_off_c, 2, 38, 64
11, 4800, Note_on_c, 2, 50, 127
11, 4990, Note_off_c, 2, 50, 64
11, 4992, Note_on_c, 2, 43, 127
11, 5274, Note_off_c, 2, 43, 64
11, 5280, Note_on_c, 2, 38, 127
11, 5566, Note_off_c, 2, 38, 64
11, 5568, Note_on_c, 2, 43, 127
11, 5752, Note_off_c, 2, 43, 64
11, 5760, Note_on_c, 2, 36, 127
11, 6042, Note_off_c, 2, 36, 64
11, 6048, Note_on_c, 2, 43, 127
11, 6253, Note_off_c, 2, 43, 64
11, 6288, Note_on_c, 2, 43, 84
11, 6304, Note_off_c, 2, 43, 64
11, 6336, Note_on_c, 2, 43, 127
11, 6520, Note_off_c, 2, 43, 64
11, 6528, Note_on_c, 2, 36, 127
11, 6800, Note_off_c, 2, 36, 64
11, 6816, Note_on_c, 2, 43, 127
11, 7087, Note_off_c, 2, 43, 64
11, 7104, Note_on_c, 2, 48, 127
11, 7392, Note_on_c, 2, 43, 127
11, 7401, Note_off_c, 2, 48, 64
11, 7680, Note_on_c, 2, 36, 127
11, 7694, Note_off_c, 2, 43, 64
11, 7860, Note_off_c, 2, 36, 64
11, 7872, Note_on_c, 2, 43, 127
11, 8051, Note_off_c, 2, 43, 64
11, 8064, Note_on_c, 2, 36, 127
11, 8352, Note_on_c, 2, 43, 127
11, 8366, Note_off_c, 2, 36, 64
11, 8640, Note_on_c, 2, 36, 126
11, 8654, Note_off_c, 2, 43, 64
11, 8819, Note_off_c, 2, 36, 64
11, 8832, Note_on_c, 2, 43, 127
11, 9113, Note_off_c, 2, 43, 64
11, 9120, Note_on_c, 2, 38, 127
11, 9371, Note_off_c, 2, 38, 64
11, 9408, Note_on_c, 2, 43, 127
11, 9669, Note_off_c, 2, 43, 64
11, 9696, Note_on_c, 2, 38, 127
11, 9696, Note_on_c, 2, 40, 127
11, 9711, Note_off_c, 2, 40, 64
11, 9972, Note_off_c, 2, 38, 64
11, 9984, Note_on_c, 2, 43, 127
11, 10176, Note_on_c, 2, 50, 127
11, 10194, Note_off_c, 2, 43, 64
11, 10340, Note_off_c, 2, 50, 64
11, 10368, Note_on_c, 2, 43, 127
11, 10650, Note_off_c, 2, 43, 64
11, 10656, Note_on_c, 2, 38, 127
11, 10923, Note_off_c, 2, 38, 64
11, 10944, Note_on_c, 2, 43, 127
11, 11174, Note_off_c, 2, 43, 64
11, 11232, Note_on_c, 2, 43, 127
11, 11520, Note_on_c, 2, 38, 127
11, 11534, Note_off_c, 2, 43, 64
11, 11689, Note_off_c, 2, 38, 64
11, 11712, Note_on_c, 2, 43, 127
11, 11886, Note_off_c, 2, 43, 64
11, 11904, Note_on_c, 2, 36, 127
11, 12191, Note_off_c, 2, 36, 64
11, 12192, Note_on_c, 2, 43, 127
11, 12336, Note_off_c, 2, 43, 64
11, 12384, Note_on_c, 2, 43, 127
11, 12512, Note_off_c, 2, 43, 64
11, 12576, Note_on_c, 2, 43, 127
11, 12672, Note_on_c, 2, 36, 127
11, 12675, Note_off_c, 2, 43, 64
11, 12953, Note_off_c, 2, 36, 64
11, 12960, Note_on_c, 2, 43, 127
11, 13227, Note_off_c, 2, 43, 64
11, 13248, Note_on_c, 2, 48, 127
11, 13535, Note_off_c, 2, 48, 64
11, 13536, Note_on_c, 2, 43, 127
11, 13817, Note_off_c, 2, 43, 64
11, 13824, Note_on_c, 2, 36, 125
11, 14009, Note_off_c, 2, 36, 64
11, 14016, Note_on_c, 2, 43, 127
11, 14205, Note_off_c, 2, 43, 64
11, 14208, Note_on_c, 2, 36, 127
11, 14485, Note_off_c, 2, 36, 64
11, 14496, Note_on_c, 2, 43, 127
11, 14784, Note_on_c, 2, 40, 127
11, 14803, Note_off_c, 2, 43, 64
11, 14880, Note_on_c, 2, 43, 127
11, 14887, Note_off_c, 2, 40, 64
11, 15044, Note_off_c, 2, 43, 64
11, 15072, Note_on_c, 2, 43, 127
11, 15210, Note_off_c, 2, 43, 64
11, 15264, Note_on_c, 2, 43, 127
11, 15360, Note_on_c, 2, 38, 127
11, 15377, Note_off_c, 2, 43, 64
11, 15539, Note_off_c, 2, 38, 64
11, 15552, Note_on_c, 2, 43, 127
11, 15711, Note_off_c, 2, 43, 64
11, 15744, Note_on_c, 2, 43, 127
11, 16015, Note_off_c, 2, 43, 64
11, 16032, Note_on_c, 2, 38, 127
11, 16304, Note_off_c, 2, 38, 64
11, 16320, Note_on_c, 2, 50, 127
11, 16582, Note_off_c, 2, 50, 64
11, 16608, Note_on_c, 2, 47, 127
11, 16800, Note_on_c, 2, 45, 127
11, 16813, Note_off_c, 2, 47, 64
11, 16896, Note_on_c, 2, 43, 127
11, 16928, Note_off_c, 2, 45, 64
11, 17075, Note_off_c, 2, 43, 64
11, 17088, Note_on_c, 2, 38, 127
11, 17273, Note_off_c, 2, 38, 64
11, 17280, Note_on_c, 2, 43, 127
11, 17546, Note_off_c, 2, 43, 64
11, 17568, Note_on_c, 2, 38, 127
11, 17850, Note_off_c, 2, 38, 64
11, 17856, Note_on_c, 2, 43, 127
11, 18046, Note_off_c, 2, 43, 64
11, 18048, Note_on_c, 2, 36, 127
11, 18309, Note_off_c, 2, 36, 64
11, 18336, Note_on_c, 2, 43, 127
11, 18489, Note_off_c, 2, 43, 64
11, 18528, Note_on_c, 2, 43, 127
11, 18651, Note_off_c, 2, 43, 64
11, 18720, Note_on_c, 2, 43, 127
11, 18816, Note_on_c, 2, 36, 127
11, 18817, Note_off_c, 2, 43, 64
11, 19082, Note_off_c, 2, 36, 64
11, 19104, Note_on_c, 2, 43, 127
11, 19375, Note_off_c, 2, 43, 64
11, 19392, Note_on_c, 2, 48, 127
11, 19680, Note_on_c, 2, 43, 127
11, 19689, Note_off_c, 2, 48, 64
11, 19834, Note_off_c, 2, 43, 64
11, 19872, Note_on_c, 2, 43, 127
11, 19968, Note_on_c, 2, 40, 127
11, 19974, Note_off_c, 2, 43, 64
11, 20142, Note_off_c, 2, 40, 64
11, 20160, Note_on_c, 2, 45, 127
11, 20345, Note_off_c, 2, 45, 64
11, 20352, Note_on_c, 2, 36, 127
11, 20639, Note_off_c, 2, 36, 64
11, 20640, Note_on_c, 2, 43, 127
11, 20784, Note_on_c, 2, 40, 122
11, 20829, Note_off_c, 2, 43, 64
11, 20994, Note_off_c, 2, 40, 64
11, 21024, Note_on_c, 2, 43, 127
11, 21203, Note_off_c, 2, 43, 64
11, 21216, Note_on_c, 2, 43, 127
11, 21369, Note_off_c, 2, 43, 64
11, 21408, Note_on_c, 2, 43, 127
11, 21504, Note_on_c, 2, 38, 127
11, 21515, Note_off_c, 2, 43, 64
11, 21694, Note_off_c, 2, 38, 64
11, 21696, Note_on_c, 2, 43, 127
11, 21839, Note_off_c, 2, 43, 64
11, 21888, Note_on_c, 2, 43, 127
11, 22165, Note_off_c, 2, 43, 64
11, 22176, Note_on_c, 2, 38, 127
11, 22437, Note_off_c, 2, 38, 64
11, 22464, Note_on_c, 2, 43, 127
11, 22735, Note_off_c, 2, 43, 64
11, 22752, Note_on_c, 2, 50, 127
11, 22901, Note_off_c, 2, 50, 64
11, 22944, Note_on_c, 2, 50, 127
11, 23040, Note_on_c, 2, 43, 127
11, 23046, Note_off_c, 2, 50, 64
11, 23225, Note_off_c, 2, 43, 64
11, 23232, Note_on_c, 2, 38, 127
11, 23406, Note_off_c, 2, 38, 64
11, 23424, Note_on_c, 2, 43, 127
11, 23706, Note_off_c, 2, 43, 64
11, 23712, Note_on_c, 2, 50, 127
11, 23904, Note_on_c, 2, 43, 126
11, 23917, Note_off_c, 2, 50, 64
11, 23996, Note_off_c, 2, 43, 64
11, 24000, Note_on_c, 2, 38, 109
11, 24096, Note_on_c, 2, 48, 127
11, 24112, Note_off_c, 2, 38, 64
11, 24255, Note_off_c, 2, 48, 64
11, 24288, Note_on_c, 2, 48, 127
11, 24384, Note_on_c, 2, 43, 127
11, 24385, Note_off_c, 2, 48, 64
11, 24563, Note_off_c, 2, 43, 64
11, 24576, Note_on_c, 2, 36, 127
11, 24745, Note_off_c, 2, 36, 64
11, 24768, Note_on_c, 2, 43, 127
11, 24947, Note_off_c, 2, 43, 64
11, 24960, Note_on_c, 2, 36, 127
11, 25222, Note_off_c, 2, 36, 64
11, 25248, Note_on_c, 2, 43, 127
11, 25376, Note_off_c, 2, 43, 64
11, 25440, Note_on_c, 2, 43, 92
11, 25614, Note_off_c, 2, 43, 64
11, 25632, Note_on_c, 2, 48, 127
11, 26016, Note_off_c, 2, 48, 64
11, 26016, Note_on_c, 2, 43, 127
11, 26175, Note_off_c, 2, 43, 64
11, 26208, Note_on_c, 2, 43, 125
11, 26351, Note_off_c, 2, 43, 64
11, 26400, Note_on_c, 2, 43, 127
11, 26496, Note_on_c, 2, 36, 127
11, 26497, Note_off_c, 2, 43, 64
11, 26757, Note_off_c, 2, 36, 64
11, 26784, Note_on_c, 2, 43, 127
11, 27066, Note_off_c, 2, 43, 64
11, 27072, Note_on_c, 2, 36, 124
11, 27230, Note_off_c, 2, 36, 64
11, 27264, Note_on_c, 2, 43, 127
11, 27552, Note_on_c, 2, 38, 127
11, 27556, Note_off_c, 2, 43, 64
11, 27744, Note_on_c, 2, 43, 127
11, 27757, Note_off_c, 2, 38, 64
11, 27936, Note_on_c, 2, 50, 126
11, 27939, Note_off_c, 2, 43, 64
11, 28032, Note_on_c, 2, 43, 127
11, 28043, Note_off_c, 2, 50, 64
11, 28308, Note_off_c, 2, 43, 64
11, 28320, Note_on_c, 2, 38, 127
11, 28587, Note_off_c, 2, 38, 64
11, 28608, Note_on_c, 2, 43, 127
11, 28895, Note_off_c, 2, 43, 64
11, 28896, Note_on_c, 2, 38, 127
11, 29045, Note_off_c, 2, 38, 64
11, 29088, Note_on_c, 2, 38, 127
11, 29164, Note_off_c, 2, 38, 64
11, 29184, Note_on_c, 2, 43, 127
11, 29358, Note_off_c, 2, 43, 64
11, 29376, Note_on_c, 2, 47, 127
11, 29555, Note_off_c, 2, 47, 64
11, 29568, Note_on_c, 2, 43, 127
11, 29856, Note_on_c, 2, 38, 127
11, 29865, Note_off_c, 2, 43, 64
11, 30123, Note_off_c, 2, 38, 64
11, 30144, Note_on_c, 2, 43, 127
11, 30336, Note_on_c, 2, 48, 127
11, 30339, Note_off_c, 2, 43, 64
11, 30622, Note_off_c, 2, 48, 64
11, 30624, Note_on_c, 2, 43, 127
11, 30859, Note_off_c, 2, 43, 64
11, 30912, Note_on_c, 2, 38, 126
11, 30912, Note_on_c, 2, 43, 127
11, 30943, Note_off_c, 2, 38, 64
11, 31087, Note_off_c, 2, 43, 64
11, 31104, Note_on_c, 2, 36, 127
11, 31390, Note_off_c, 2, 36, 64
11, 31392, Note_on_c, 2, 43, 127
11, 31664, Note_off_c, 2, 43, 64
11, 31680, Note_on_c, 2, 48, 127
11, 31962, Note_off_c, 2, 48, 64
11, 31968, Note_on_c, 2, 43, 127
11, 32096, Note_off_c, 2, 43, 64
11, 32160, Note_on_c, 2, 43, 127
11, 32256, Note_on_c, 2, 36, 126
11, 32268, Note_off_c, 2, 43, 64
11, 32435, Note_off_c, 2, 36, 64
11, 32448, Note_on_c, 2, 43, 127
11, 32612, Note_off_c, 2, 43, 64
11, 32640, Note_on_c, 2, 36, 127
11, 32906, Note_off_c, 2, 36, 64
11, 32928, Note_on_c, 2, 43, 127
11, 33216, Note_on_c, 2, 40, 127
11, 33220, Note_off_c, 2, 43, 64
11, 33312, Note_on_c, 2, 43, 127
11, 33324, Note_off_c, 2, 40, 64
11, 33491, Note_off_c, 2, 43, 64
11, 33504, Note_on_c, 2, 43, 127
11, 33632, Note_off_c, 2, 43, 64
11, 33696, Note_on_c, 2, 43, 125
11, 33783, Note_off_c, 2, 43, 64
11, 33792, Note_on_c, 2, 38, 127
11, 33984, Note_on_c, 2, 50, 127
11, 34002, Note_off_c, 2, 38, 64
11, 34148, Note_off_c, 2, 50, 64
11, 34176, Note_on_c, 2, 43, 127
11, 34463, Note_off_c, 2, 43, 64
11, 34464, Note_on_c, 2, 38, 127
11, 34730, Note_off_c, 2, 38, 64
11, 34752, Note_on_c, 2, 43, 127
11, 35008, Note_off_c, 2, 43, 64
11, 35040, Note_on_c, 2, 43, 127
11, 35327, Note_off_c, 2, 43, 64
11, 35328, Note_on_c, 2, 38, 127
11, 35512, Note_off_c, 2, 38, 64
11, 35520, Note_on_c, 2, 50, 127
11, 35710, Note_off_c, 2, 50, 64
11, 35712, Note_on_c, 2, 43, 127
11, 35993, Note_off_c, 2, 43, 64
11, 36000, Note_on_c, 2, 38, 127
11, 36287, Note_off_c, 2, 38, 64
11, 36288, Note_on_c, 2, 43, 127
11, 36473, Note_off_c, 2, 43, 64
11, 36480, Note_on_c, 2, 36, 127
11, 36613, Note_off_c, 2, 36, 64
11, 36672, Note_on_c, 2, 36, 127
11, 36733, Note_off_c, 2, 36, 64
11, 36768, Note_on_c, 2, 36, 127
11, 36845, Note_off_c, 2, 36, 64
11, 36864, Note_on_c, 2, 36, 127
11, 36951, Note_off_c, 2, 36, 64
11, 36951, End_track
12, 0, Start_track
12, 0, MIDI_port, 1
12, 0, Title_t, "Melody              "
12, 0, Program_c, 3, 27
12, 96, Note_on_c, 3, 67, 127
12, 152, Note_off_c, 3, 67, 64
12, 192, Note_on_c, 3, 67, 127
12, 243, Note_off_c, 3, 67, 64
12, 288, Note_on_c, 3, 67, 127
12, 339, Note_off_c, 3, 67, 64
12, 384, Note_on_c, 3, 72, 127
12, 589, Note_off_c, 3, 72, 64
12, 672, Note_on_c, 3, 76, 127
12, 785, Note_off_c, 3, 76, 64
12, 864, Note_on_c, 3, 67, 127
12, 920, Note_off_c, 3, 67, 64
12, 960, Note_on_c, 3, 67, 127
12, 1011, Note_off_c, 3, 67, 64
12, 1056, Note_on_c, 3, 67, 117
12, 1102, Note_off_c, 3, 67, 64
12, 1152, Note_on_c, 3, 72, 122
12, 1346, Note_off_c, 3, 72, 64
12, 1440, Note_on_c, 3, 76, 127
12, 1614, Note_off_c, 3, 76, 64
12, 2016, Note_on_c, 3, 72, 126
12, 2123, Note_off_c, 3, 72, 64
12, 2208, Note_on_c, 3, 72, 127
12, 2285, Note_off_c, 3, 72, 64
12, 2304, Note_on_c, 3, 71, 120
12, 2361, Note_off_c, 3, 71, 64
12, 2400, Note_on_c, 3, 71, 127
12, 2461, Note_off_c, 3, 71, 64
12, 2496, Note_on_c, 3, 69, 126
12, 2537, Note_off_c, 3, 69, 64
12, 2592, Note_on_c, 3, 69, 125
12, 2659, Note_off_c, 3, 69, 64
12, 2688, Note_on_c, 3, 67, 127
12, 2985, Note_off_c, 3, 67, 64
12, 3168, Note_on_c, 3, 67, 114
12, 3219, Note_off_c, 3, 67, 64
12, 3264, Note_on_c, 3, 67, 117
12, 3310, Note_off_c, 3, 67, 64
12, 3360, Note_on_c, 3, 67, 126
12, 3411, Note_off_c, 3, 67, 64
12, 3456, Note_on_c, 3, 71, 127
12, 3651, Note_off_c, 3, 71, 64
12, 3744, Note_on_c, 3, 74, 125
12, 3842, Note_off_c, 3, 74, 64
12, 3936, Note_on_c, 3, 67, 122
12, 3987, Note_off_c, 3, 67, 64
12, 4032, Note_on_c, 3, 67, 126
12, 4083, Note_off_c, 3, 67, 64
12, 4128, Note_on_c, 3, 67, 127
12, 4189, Note_off_c, 3, 67, 64
12, 4224, Note_on_c, 3, 71, 127
12, 4455, Note_off_c, 3, 71, 64
12, 4512, Note_on_c, 3, 74, 127
12, 4650, Note_off_c, 3, 74, 64
12, 5088, Note_on_c, 3, 79, 122
12, 5206, Note_off_c, 3, 79, 64
12, 5280, Note_on_c, 3, 81, 125
12, 5376, Note_on_c, 3, 79, 125
12, 5377, Note_off_c, 3, 81, 64
12, 5463, Note_off_c, 3, 79, 64
12, 5472, Note_on_c, 3, 77, 116
12, 5564, Note_off_c, 3, 77, 64
12, 5568, Note_on_c, 3, 76, 95
12, 5650, Note_off_c, 3, 76, 64
12, 5664, Note_on_c, 3, 74, 120
12, 5746, Note_off_c, 3, 74, 64
12, 5760, Note_on_c, 3, 76, 124
12, 6093, Note_off_c, 3, 76, 64
12, 6240, Note_on_c, 3, 67, 127
12, 6291, Note_off_c, 3, 67, 64
12, 6336, Note_on_c, 3, 67, 127
12, 6387, Note_off_c, 3, 67, 64
12, 6432, Note_on_c, 3, 67, 127
12, 6499, Note_off_c, 3, 67, 64
12, 6528, Note_on_c, 3, 72, 127
12, 6728, Note_off_c, 3, 72, 64
12, 6816, Note_on_c, 3, 76, 127
12, 6938, Note_off_c, 3, 76, 64
12, 7008, Note_on_c, 3, 67, 127
12, 7059, Note_off_c, 3, 67, 64
12, 7104, Note_on_c, 3, 67, 127
12, 7155, Note_off_c, 3, 67, 64
12, 7200, Note_on_c, 3, 67, 127
12, 7257, Note_off_c, 3, 67, 64
12, 7296, Note_on_c, 3, 72, 127
12, 7537, Note_off_c, 3, 72, 64
12, 7584, Note_on_c, 3, 76, 127
12, 7661, Note_off_c, 3, 76, 64
12, 8160, Note_on_c, 3, 67, 116
12, 8237, Note_off_c, 3, 67, 64
12, 8256, Note_on_c, 3, 72, 126
12, 8349, Note_off_c, 3, 72, 64
12, 8352, Note_on_c, 3, 71, 111
12, 8448, Note_on_c, 3, 72, 116
12, 8454, Note_off_c, 3, 71, 64
12, 8525, Note_off_c, 3, 72, 64
12, 8544, Note_on_c, 3, 71, 105
12, 8631, Note_off_c, 3, 71, 64
12, 8640, Note_on_c, 3, 72, 125
12, 8732, Note_off_c, 3, 72, 64
12, 8736, Note_on_c, 3, 73, 109
12, 8813, Note_off_c, 3, 73, 64
12, 8832, Note_on_c, 3, 74, 127
12, 9165, Note_off_c, 3, 74, 64
12, 9312, Note_on_c, 3, 67, 116
12, 9363, Note_off_c, 3, 67, 64
12, 9408, Note_on_c, 3, 67, 126
12, 9464, Note_off_c, 3, 67, 64
12, 9504, Note_on_c, 3, 67, 122
12, 9560, Note_off_c, 3, 67, 64
12, 9600, Note_on_c, 3, 71, 125
12, 9866, Note_off_c, 3, 71, 64
12, 9888, Note_on_c, 3, 74, 127
12, 9980, Note_off_c, 3, 74, 64
12, 10080, Note_on_c, 3, 67, 127
12, 10136, Note_off_c, 3, 67, 64
12, 10176, Note_on_c, 3, 67, 127
12, 10227, Note_off_c, 3, 67, 64
12, 10272, Note_on_c, 3, 67, 122
12, 10329, Note_off_c, 3, 67, 64
12, 10368, Note_on_c, 3, 71, 125
12, 10614, Note_off_c, 3, 71, 64
12, 10656, Note_on_c, 3, 74, 127
12, 10809, Note_off_c, 3, 74, 64
12, 11232, Note_on_c, 3, 79, 125
12, 11324, Note_off_c, 3, 79, 64
12, 11424, Note_on_c, 3, 81, 125
12, 11506, Note_off_c, 3, 81, 64
12, 11520, Note_on_c, 3, 79, 122
12, 11616, Note_on_c, 3, 77, 117
12, 11622, Note_off_c, 3, 79, 64
12, 11712, Note_on_c, 3, 76, 120
12, 11714, Note_off_c, 3, 77, 64
12, 11808, Note_on_c, 3, 74, 116
12, 11809, Note_off_c, 3, 76, 64
12, 11879, Note_off_c, 3, 74, 64
12, 11904, Note_on_c, 3, 72, 125
12, 12170, Note_off_c, 3, 72, 64
12, 12768, Note_on_c, 3, 67, 127
12, 12845, Note_off_c, 3, 67, 64
12, 12960, Note_on_c, 3, 67, 127
12, 13032, Note_off_c, 3, 67, 64
12, 13056, Note_on_c, 3, 72, 127
12, 13102, Note_off_c, 3, 72, 64
12, 13152, Note_on_c, 3, 72, 127
12, 13214, Note_off_c, 3, 72, 64
12, 13248, Note_on_c, 3, 76, 127
12, 13299, Note_off_c, 3, 76, 64
12, 13344, Note_on_c, 3, 76, 124
12, 13395, Note_off_c, 3, 76, 64
12, 13440, Note_on_c, 3, 79, 127
12, 13696, Note_off_c, 3, 79, 64
12, 13728, Note_on_c, 3, 76, 127
12, 13810, Note_off_c, 3, 76, 64
12, 14304, Note_on_c, 3, 79, 127
12, 14391, Note_off_c, 3, 79, 64
12, 14496, Note_on_c, 3, 81, 127
12, 14592, Note_on_c, 3, 79, 127
12, 14593, Note_off_c, 3, 81, 64
12, 14669, Note_off_c, 3, 79, 64
12, 14688, Note_on_c, 3, 77, 112
12, 14765, Note_off_c, 3, 77, 64
12, 14784, Note_on_c, 3, 76, 127
12, 14851, Note_off_c, 3, 76, 64
12, 14880, Note_on_c, 3, 79, 127
12, 14951, Note_off_c, 3, 79, 64
12, 14976, Note_on_c, 3, 77, 127
12, 15258, Note_off_c, 3, 77, 64
12, 15264, Note_on_c, 3, 74, 127
12, 15366, Note_off_c, 3, 74, 64
12, 15840, Note_on_c, 3, 67, 127
12, 15921, Note_off_c, 3, 67, 64
12, 16032, Note_on_c, 3, 67, 127
12, 16119, Note_off_c, 3, 67, 64
12, 16128, Note_on_c, 3, 71, 127
12, 16184, Note_off_c, 3, 71, 64
12, 16224, Note_on_c, 3, 71, 127
12, 16291, Note_off_c, 3, 71, 64
12, 16320, Note_on_c, 3, 74, 127
12, 16371, Note_off_c, 3, 74, 64
12, 16416, Note_on_c, 3, 74, 127
12, 16467, Note_off_c, 3, 74, 64
12, 16512, Note_on_c, 3, 77, 127
12, 16784, Note_off_c, 3, 77, 64
12, 16800, Note_on_c, 3, 74, 127
12, 16887, Note_off_c, 3, 74, 64
12, 17376, Note_on_c, 3, 79, 127
12, 17452, Note_off_c, 3, 79, 64
12, 17568, Note_on_c, 3, 81, 127
12, 17660, Note_off_c, 3, 81, 64
12, 17664, Note_on_c, 3, 79, 127
12, 17741, Note_off_c, 3, 79, 64
12, 17760, Note_on_c, 3, 77, 125
12, 17852, Note_off_c, 3, 77, 64
12, 17856, Note_on_c, 3, 76, 125
12, 17952, Note_on_c, 3, 74, 116
12, 17959, Note_off_c, 3, 76, 64
12, 18034, Note_off_c, 3, 74, 64
12, 18048, Note_on_c, 3, 76, 127
12, 18350, Note_off_c, 3, 76, 64
12, 18912, Note_on_c, 3, 67, 127
12, 19004, Note_off_c, 3, 67, 64
12, 19104, Note_on_c, 3, 67, 127
12, 19191, Note_off_c, 3, 67, 64
12, 19200, Note_on_c, 3, 72, 127
12, 19257, Note_off_c, 3, 72, 64
12, 19296, Note_on_c, 3, 72, 127
12, 19377, Note_off_c, 3, 72, 64
12, 19392, Note_on_c, 3, 76, 127
12, 19448, Note_off_c, 3, 76, 64
12, 19488, Note_on_c, 3, 76, 120
12, 19560, Note_off_c, 3, 76, 64
12, 19584, Note_on_c, 3, 79, 127
12, 19872, Note_on_c, 3, 76, 127
12, 19876, Note_off_c, 3, 79, 64
12, 19954, Note_off_c, 3, 76, 64
12, 20448, Note_on_c, 3, 79, 127
12, 20530, Note_off_c, 3, 79, 64
12, 20640, Note_on_c, 3, 81, 127
12, 20736, Note_on_c, 3, 79, 127
12, 20748, Note_off_c, 3, 81, 64
12, 20813, Note_off_c, 3, 79, 64
12, 20832, Note_on_c, 3, 77, 124
12, 20894, Note_off_c, 3, 77, 64
12, 20928, Note_on_c, 3, 76, 127
12, 21005, Note_off_c, 3, 76, 64
12, 21024, Note_on_c, 3, 79, 127
12, 21096, Note_off_c, 3, 79, 64
12, 21120, Note_on_c, 3, 77, 127
12, 21392, Note_off_c, 3, 77, 64
12, 21408, Note_on_c, 3, 74, 127
12, 21526, Note_off_c, 3, 74, 64
12, 21984, Note_on_c, 3, 67, 127
12, 22081, Note_off_c, 3, 67, 64
12, 22128, Note_on_c, 3, 67, 127
12, 22215, Note_off_c, 3, 67, 64
12, 22272, Note_on_c, 3, 67, 127
12, 22359, Note_off_c, 3, 67, 64
12, 22416, Note_on_c, 3, 71, 127
12, 22508, Note_off_c, 3, 71, 64
12, 22560, Note_on_c, 3, 74, 127
12, 22632, Note_off_c, 3, 74, 64
12, 22656, Note_on_c, 3, 77, 127
12, 22927, Note_off_c, 3, 77, 64
12, 22944, Note_on_c, 3, 74, 127
12, 23062, Note_off_c, 3, 74, 64
12, 23520, Note_on_c, 3, 79, 127
12, 23607, Note_off_c, 3, 79, 64
12, 23712, Note_on_c, 3, 81, 127
12, 23808, Note_on_c, 3, 79, 126
12, 23810, Note_off_c, 3, 81, 64
12, 23895, Note_off_c, 3, 79, 64
12, 23904, Note_on_c, 3, 77, 125
12, 24000, Note_on_c, 3, 76, 127
12, 24001, Note_off_c, 3, 77, 64
12, 24096, Note_on_c, 3, 74, 117
12, 24113, Note_off_c, 3, 76, 64
12, 24178, Note_off_c, 3, 74, 64
12, 24192, Note_on_c, 3, 72, 127
12, 24489, Note_off_c, 3, 72, 64
12, 24672, Note_on_c, 3, 67, 126
12, 24733, Note_off_c, 3, 67, 64
12, 24768, Note_on_c, 3, 67, 127
12, 24824, Note_off_c, 3, 67, 64
12, 24864, Note_on_c, 3, 67, 120
12, 24921, Note_off_c, 3, 67, 64
12, 24960, Note_on_c, 3, 72, 127
12, 25195, Note_off_c, 3, 72, 64
12, 25248, Note_on_c, 3, 76, 127
12, 25335, Note_off_c, 3, 76, 64
12, 25440, Note_on_c, 3, 67, 127
12, 25496, Note_off_c, 3, 67, 64
12, 25536, Note_on_c, 3, 67, 117
12, 25587, Note_off_c, 3, 67, 64
12, 25632, Note_on_c, 3, 67, 127
12, 25699, Note_off_c, 3, 67, 64
12, 25728, Note_on_c, 3, 72, 127
12, 25999, Note_off_c, 3, 72, 64
12, 26016, Note_on_c, 3, 76, 127
12, 26104, Note_off_c, 3, 76, 64
12, 26592, Note_on_c, 3, 72, 127
12, 26689, Note_off_c, 3, 72, 64
12, 26784, Note_on_c, 3, 72, 127
12, 26880, Note_on_c, 3, 71, 125
12, 26892, Note_off_c, 3, 72, 64
12, 26936, Note_off_c, 3, 71, 64
12, 26976, Note_on_c, 3, 71, 127
12, 27068, Note_off_c, 3, 71, 64
12, 27072, Note_on_c, 3, 69, 127
12, 27123, Note_off_c, 3, 69, 64
12, 27168, Note_on_c, 3, 69, 127
12, 27245, Note_off_c, 3, 69, 64
12, 27264, Note_on_c, 3, 67, 127
12, 27658, Note_off_c, 3, 67, 64
12, 27744, Note_on_c, 3, 67, 127
12, 27811, Note_off_c, 3, 67, 64
12, 27840, Note_on_c, 3, 67, 127
12, 27891, Note_off_c, 3, 67, 64
12, 27936, Note_on_c, 3, 67, 126
12, 27982, Note_off_c, 3, 67, 64
12, 28032, Note_on_c, 3, 71, 127
12, 28283, Note_off_c, 3, 71, 64
12, 28320, Note_on_c, 3, 74, 127
12, 28407, Note_off_c, 3, 74, 64
12, 28512, Note_on_c, 3, 67, 127
12, 28574, Note_off_c, 3, 67, 64
12, 28608, Note_on_c, 3, 67, 126
12, 28665, Note_off_c, 3, 67, 64
12, 28704, Note_on_c, 3, 67, 125
12, 28770, Note_off_c, 3, 67, 64
12, 28800, Note_on_c, 3, 71, 127
12, 29051, Note_off_c, 3, 71, 64
12, 29088, Note_on_c, 3, 74, 127
12, 29190, Note_off_c, 3, 74, 64
12, 29664, Note_on_c, 3, 79, 127
12, 29751, Note_off_c, 3, 79, 64
12, 29856, Note_on_c, 3, 81, 127
12, 29952, Note_on_c, 3, 79, 127
12, 29953, Note_off_c, 3, 81, 64
12, 30029, Note_off_c, 3, 79, 64
12, 30048, Note_on_c, 3, 77, 115
12, 30130, Note_off_c, 3, 77, 64
12, 30144, Note_on_c, 3, 76, 122
12, 30240, Note_on_c, 3, 74, 120
12, 30242, Note_off_c, 3, 76, 64
12, 30316, Note_off_c, 3, 74, 64
12, 30336, Note_on_c, 3, 76, 127
12, 30710, Note_off_c, 3, 76, 64
12, 30816, Note_on_c, 3, 67, 127
12, 30873, Note_off_c, 3, 67, 64
12, 30912, Note_on_c, 3, 67, 127
12, 30968, Note_off_c, 3, 67, 64
12, 31008, Note_on_c, 3, 67, 127
12, 31074, Note_off_c, 3, 67, 64
12, 31104, Note_on_c, 3, 72, 127
12, 31350, Note_off_c, 3, 72, 64
12, 31392, Note_on_c, 3, 76, 127
12, 31474, Note_off_c, 3, 76, 64
12, 31584, Note_on_c, 3, 67, 127
12, 31640, Note_off_c, 3, 67, 64
12, 31680, Note_on_c, 3, 67, 127
12, 31736, Note_off_c, 3, 67, 64
12, 31776, Note_on_c, 3, 67, 127
12, 31832, Note_off_c, 3, 67, 64
12, 31872, Note_on_c, 3, 72, 127
12, 32108, Note_off_c, 3, 72, 64
12, 32160, Note_on_c, 3, 76, 127
12, 32247, Note_off_c, 3, 76, 64
12, 32736, Note_on_c, 3, 72, 127
12, 32848, Note_off_c, 3, 72, 64
12, 32928, Note_on_c, 3, 67, 117
12, 33015, Note_off_c, 3, 67, 64
12, 33024, Note_on_c, 3, 72, 127
12, 33101, Note_off_c, 3, 72, 64
12, 33120, Note_on_c, 3, 71, 127
12, 33197, Note_off_c, 3, 71, 64
12, 33216, Note_on_c, 3, 72, 127
12, 33292, Note_off_c, 3, 72, 64
12, 33312, Note_on_c, 3, 73, 117
12, 33389, Note_off_c, 3, 73, 64
12, 33408, Note_on_c, 3, 74, 127
12, 33792, Note_off_c, 3, 74, 64
12, 33888, Note_on_c, 3, 67, 125
12, 33945, Note_off_c, 3, 67, 64
12, 33984, Note_on_c, 3, 67, 127
12, 34040, Note_off_c, 3, 67, 64
12, 34080, Note_on_c, 3, 67, 127
12, 34131, Note_off_c, 3, 67, 64
12, 34176, Note_on_c, 3, 71, 127
12, 34421, Note_off_c, 3, 71, 64
12, 34464, Note_on_c, 3, 74, 127
12, 34546, Note_off_c, 3, 74, 64
12, 34656, Note_on_c, 3, 67, 127
12, 34717, Note_off_c, 3, 67, 64
12, 34752, Note_on_c, 3, 67, 125
12, 34808, Note_off_c, 3, 67, 64
12, 34848, Note_on_c, 3, 67, 127
12, 34920, Note_off_c, 3, 67, 64
12, 34944, Note_on_c, 3, 71, 127
12, 35189, Note_off_c, 3, 71, 64
12, 35232, Note_on_c, 3, 74, 127
12, 35334, Note_off_c, 3, 74, 64
12, 35808, Note_on_c, 3, 79, 127
12, 35900, Note_off_c, 3, 79, 64
12, 36000, Note_on_c, 3, 81, 127
12, 36096, Note_on_c, 3, 79, 127
12, 36102, Note_off_c, 3, 81, 64
12, 36173, Note_off_c, 3, 79, 64
12, 36192, Note_on_c, 3, 77, 117
12, 36288, Note_on_c, 3, 76, 102
12, 36295, Note_off_c, 3, 77, 64
12, 36384, Note_on_c, 3, 74, 127
12, 36385, Note_off_c, 3, 76, 64
12, 36476, Note_off_c, 3, 74, 64
12, 36480, Note_on_c, 3, 72, 127
12, 36582, Note_off_c, 3, 72, 64
12, 36672, Note_on_c, 3, 72, 127
12, 36733, Note_off_c, 3, 72, 64
12, 36768, Note_on_c, 3, 72, 127
12, 36830, Note_off_c, 3, 72, 64
12, 36864, Note_on_c, 3, 72, 127
12, 36940, Note_off_c, 3, 72, 64
12, 36940, End_track
0, 0, End_of_file
